<?xml version="1.0" encoding="UTF-8" standalone="no"?>
<!-- Created with Inkscape (http://www.inkscape.org/) -->

<svg
   version="1.1"
   id="svg2"
   xml:space="preserve"
   width="2341.5908"
   height="2584.8523"
   viewBox="0 0 2341.5909 2584.8523"
   sodipodi:docname="72d2e5fc48931dbb2ec35d7b500a97a3.eps"
   xmlns:inkscape="http://www.inkscape.org/namespaces/inkscape"
   xmlns:sodipodi="http://sodipodi.sourceforge.net/DTD/sodipodi-0.dtd"
   xmlns="http://www.w3.org/2000/svg"
   xmlns:svg="http://www.w3.org/2000/svg"><defs
     id="defs6" /><sodipodi:namedview
     id="namedview4"
     pagecolor="#ffffff"
     bordercolor="#666666"
     borderopacity="1.0"
     inkscape:pageshadow="2"
     inkscape:pageopacity="0.0"
     inkscape:pagecheckerboard="0" /><g
     id="g8"
     inkscape:groupmode="layer"
     inkscape:label="ink_ext_XXXXXX"
     transform="matrix(1.3333333,0,0,-1.3333333,-243.41435,2707.5489)"><g
       id="g10"
       transform="scale(0.1)"><g
         id="g12"
         transform="scale(1.19936)"><path
           d="M 5370.24,5579.97 C 4926.49,5332.67 4539.2,4916.03 4082.04,4695.41 3745.76,4533.16 2837.87,4376.83 2708.92,3986.04 2540.59,3475.6 3517.71,3850.72 3513.89,3530.38 3510.65,3258.4 2399.71,2952.57 2183.44,2827.26 1935.73,2683.76 1160.65,2283.71 1721.48,2101.7 c 471.06,-152.91 1117.85,42.86 1592.31,99.22 307.1,36.52 1153.02,295.49 1194.7,-170.51 29.73,-332.76 -396.07,-550.46 34.24,-724.05 491.98,-198.6 1226.1,182.43 1722.3,228.71 201.68,18.76 470.19,56.19 598.56,-136.58 92.87,-139.4 -7.79,-344.43 116.67,-483.837 346.06,-387.289 1203.8,96.137 1565.95,228.037 253.39,92.3 572.8,276.15 847.2,278.65 288.57,2.58 180.35,-23.1 325.01,-215.53 760.38,-1011.706 2177.38,124.15 3098.58,220.45 190.3,19.84 449.7,-11.18 727.9,-42.27 585,-65.29 1253.2,-130.66 1537.3,278.31 286.4,412.3 -623,288.24 -842.9,326.42 -132.8,23.1 -480.9,80.47 -513.9,262.89 -45.2,249.3 303.6,205.95 478.5,226.62 474,56.03 1781.4,168.68 1943,761.49 153.1,561.3 -713.9,415.73 -949.2,659.61 -240.8,249.46 133.5,312.16 -8.2,608.4 -382.3,799.59 -2899,1309.11 -3407.3,1867.24 -204.5,224.54 -251,-169.75 -343.3,-564.13 -75.1,-320.67 -180.5,-641.43 -426,-629.17 -589.9,29.52 -1201.6,29.02 -1790.08,26.93 -951.26,-3.33 -1892.11,-271.81 -2810.78,49.86 -454.56,159.17 1321.36,1153.62 913.18,749.65 L 5370.24,5579.97"
           style="fill:#6acdc8;fill-opacity:1;fill-rule:nonzero;stroke:none"
           id="path14" /></g><g
         id="g16"
         transform="scale(1.08191)"><path
           d="m 12413.5,2307.76 c -147.7,0 -299.6,19.51 -397.8,142.44 -95,118.86 -27.3,279.78 30.5,398.46 79.1,162.12 246.1,427.02 76.3,589.97 -107.7,103.43 -239.9,142.52 -379.9,142.52 -267.4,0 -563.3,-142.43 -772.4,-251.49 -369.8,-193 -703.3,-443.02 -1065.07,-648.39 -144.56,-82.08 -305.84,-143.54 -464.73,-191.05 -97.88,-29.3 -221.3,-65.72 -337.27,-65.72 -76.83,0 -150.38,15.99 -211.09,60.63 -176.12,129.59 -19.49,342.82 90.97,448.28 118.12,112.95 232.22,240.5 287.32,398.19 44.64,127.83 -25.88,161.75 -117.36,161.75 -55.87,0 -119.53,-12.67 -169.47,-24.22 -267.49,-62.02 -524.93,-165.63 -782.2,-259.54 -256.32,-93.63 -517.87,-198.08 -787.88,-245.21 -43.29,-7.58 -103.99,-17.29 -164.15,-17.29 -95.95,0 -190.54,24.77 -211.1,122.19 -27.29,128.76 72.46,212.13 171.16,275.53 86.92,55.83 189.41,103.43 262.18,178.11 105.46,108.05 47.28,234.13 -98.89,258.34 -63.27,10.45 -126.01,15.07 -188.26,15.07 -234.13,0 -461.86,-65.44 -689.84,-130.88 -227.96,-65.44 -456.18,-130.79 -691.17,-130.79 -64.48,0 -129.43,4.9 -195.07,16.09 -9.47,1.66 -18.43,13.3 -17.39,22.82 11.88,104.27 102.13,187.27 176.61,252.43 106.62,93.07 221.73,175.43 334.37,260.74 245.23,-61.19 504.45,-79.86 758.22,-79.86 0.14,0 0.24,0 0.38,0 v 0 0 h 0.03 c 54.04,0 107.77,0.83 161.13,2.31 1.14,0 2.24,0.09 3.37,0.09 1.48,0 3,0.1 4.48,0.1 3.05,0.09 6.1,0.18 9.14,0.27 668.23,19.32 1332.96,67.57 2002.25,67.57 305.9,0 611.75,-1.85 917.59,-4.62 0.1,-0.09 0.1,-0.19 0.19,-0.28 214.05,-1.94 428.15,-4.16 642.15,-6.84 124.3,-1.2 248.6,-2.59 372.8,-4.07 665.9,-7.85 1331.6,-17.56 1997.6,-17.56 0.1,0 0.2,0 0.3,0 v 0 0 0 c 11.4,0 22.7,0 34.1,0 v 0 c 1.8,0 3.8,0 5.6,0 0.1,0 0.2,0 0.3,0 151.9,0 303.9,-3.51 455.8,-7.39 11,-0.28 22.1,-0.56 33.2,-0.84 4.4,-0.09 8.7,-0.18 13.1,-0.27 v 0 0 c 2.3,-0.09 4.6,-0.19 6.9,-0.19 0.6,-0.09 1.3,-0.09 1.8,-0.09 4.8,-0.09 9.6,-0.28 14.5,-0.37 2.4,-0.09 4.8,-0.09 7.2,-0.18 0.8,0 1.7,0 2.6,-0.09 1.1,0 2.4,0 3.5,-0.1 8.2,-0.18 16.3,-0.37 24.5,-0.55 5.4,-0.19 10.7,-0.28 16,-0.47 141.7,-3.51 283.4,-6.56 425.1,-6.56 0.1,0 0.1,0 0.2,0 v 0 0 h 0.1 c 137.6,0 275.2,2.87 412.8,11.1 1.6,0.09 3.1,0.18 4.6,0.27 v 0 c 385.1,23.11 890.7,62.48 1165.3,372.58 89.3,100.84 125.3,213.05 125.2,326.74 0,52.31 -7.7,105 -21.3,156.94 18.1,-30.68 33.8,-62.39 46.6,-95.57 80.2,-208.15 17.8,-452.16 -124.7,-620.66 -285.1,-337.36 -781.6,-333.39 -1171.3,-460.76 -103.2,-33.73 -213.2,-75.32 -294.4,-150.2 -69.2,-63.68 -180.3,-208.51 -123.7,-307.41 39.4,-68.68 113.3,-106.02 146.7,-179.77 30.8,-68.22 6.6,-157.04 -34.3,-216.1 -108,-156.21 -305.7,-236.53 -480,-295.87 -183.9,-62.76 -371.8,-115.35 -561.1,-159.35 -217.3,-50.55 -442.3,-97.6 -666.3,-100.74 -8.9,-0.1 -17.8,-0.19 -26.6,-0.19 M 16300,5100.4 c 0,169.06 -31.1,333.77 -113.5,485.07 -0.5,0.28 -1,0.56 -1.5,0.84 0.5,-0.28 1,-0.56 1.5,-0.84 82.4,-151.3 113.5,-316.01 113.5,-485.07"
           style="fill:#57c6be;fill-opacity:1;fill-rule:nonzero;stroke:none"
           id="path18" /></g><path
         d="m 15652.5,6863.7 c -17.7,7 -35.4,14 -53,21 v 0 c 17.6,-7 35.3,-14 53,-21"
         style="fill:#d2f0ec;fill-opacity:1;fill-rule:nonzero;stroke:none"
         id="path20" /><g
         id="g22"
         transform="scale(1.07428)"><path
           d="m 16300,5625.99 c -494.7,287.45 -1171.5,541.38 -1779.1,782.57 v 0.09 c 16.3,-6.52 32.8,-13.03 49.3,-19.55 594.7,-235.32 1248.5,-483.39 1729.8,-763.11"
           style="fill:#57c6be;fill-opacity:1;fill-rule:nonzero;stroke:none"
           id="path24" /></g><g
         id="g26"
         transform="scale(1.05501)"><path
           d="m 16300,2252.03 c -33.6,0.94 -63.3,2.65 -88.1,5.4 24.8,-2.75 54.6,-4.36 88,-5.31 l 0.1,-0.09 m -112.3,8.81 c -102.7,17.82 -318.4,53.65 -457.8,140 0.1,-0.1 0.3,-0.1 0.6,-0.1 139.4,-86.16 354.6,-122.08 457.2,-139.9"
           style="fill:#ade3dc;fill-opacity:1;fill-rule:nonzero;stroke:none"
           id="path28" /></g><g
         id="g30"
         transform="scale(1.13898)"><path
           d="m 11157.7,1225.92 c -67,0 -131.2,13.08 -187.5,46.53 -62.1,36.88 -82.9,88.06 -82.9,143.99 0,79.72 42.4,169.19 67.8,240.83 10,28.54 14.3,58.83 14.3,89.47 0,58.56 -15.8,118.52 -37.1,170.59 -65.2,160.49 -214.8,209.83 -379.8,209.83 -172.2,0 -360.9,-53.82 -487.5,-90.87 -304.35,-89.11 -583.72,-211.33 -873.19,-337.58 -313.27,-136.61 -682.8,-307.9 -1035.73,-307.9 -24.61,0 -49.21,0.87 -73.63,2.63 -157.28,11.15 -254.94,111.94 -254.83,257.86 0,19.75 1.8,40.3 5.49,61.63 17.87,103.87 104.17,218.97 104.11,328.81 0,13.96 -1.42,27.92 -4.56,41.79 -36.71,161.37 -287.37,179.55 -415.11,193.42 -64.87,7.02 -129.5,10.27 -193.95,10.27 -253.25,0 -503.29,-49.78 -749.67,-112.56 -317.06,-80.6 -632.4,-198.42 -958.82,-235.29 -33.12,-3.69 -70.91,-7.29 -109.25,-7.29 -71.27,0 -144.36,12.38 -192.37,59.35 -19.42,19.05 -27.48,42.93 -27.47,69.36 0.06,97.01 109.29,227.04 165.05,266.38 142.95,100.79 355.07,160.49 455.9,311.85 20.69,31.08 29.62,59.44 29.65,85.26 0.1,92.62 -114.54,151.62 -210.5,180.24 -145.57,43.38 -310.07,53.21 -469.66,53.21 -78.05,0 -154.95,-2.28 -227.85,-4.3 -332.83,-9.04 -663.79,-67.52 -986.4,-147.41 -225,-55.58 -441.87,-145.14 -673.12,-173.32 -34.88,-4.3 -71.23,-7.72 -107.45,-7.72 -39.29,0 -78.42,4.03 -115.32,15.45 -29.75,9.22 -41.26,25.64 -41.24,45.57 0.07,59.35 101.84,150.04 130.13,176.21 222.43,205.44 524.25,319.05 785.31,465.24 218.12,122.3 463.48,290.78 592.31,511.07 28.03,47.94 40.51,90.08 40.49,127.13 -0.12,267.7 -652.94,272 -815.41,310.45 -23.85,5.62 -99.53,21.07 -99.38,57.95 0.02,3.95 0.93,8.16 2.88,12.73 22.37,51.54 95.04,85.07 139.78,111.94 130.69,78.67 267.14,148.64 405.61,212.29 199.69,91.84 404.95,170.68 602.01,267.61 -5.15,-39.51 -7.75,-79.37 -7.73,-119.14 0.06,-225.81 84,-450.75 260.21,-606.59 v 0 c 1.63,-1.49 3.26,-2.9 4.9,-4.39 1.19,-1.06 2.36,-2.02 3.55,-3.07 189.26,-164.71 411.02,-264.71 646.4,-323.45 -107,-81.04 -216.34,-159.27 -317.61,-247.68 -70.75,-61.9 -156.48,-140.74 -167.77,-239.78 -0.98,-9.04 7.53,-20.1 16.52,-21.68 62.35,-10.63 124.05,-15.28 185.3,-15.28 223.21,0 440,62.08 656.54,124.23 216.56,62.17 432.87,124.33 655.27,124.33 59.14,0 118.73,-4.39 178.83,-14.32 138.84,-23 194.11,-142.75 93.94,-245.39 -69.13,-70.94 -166.49,-116.15 -249.04,-169.19 -93.76,-60.23 -188.51,-139.42 -162.59,-261.72 19.53,-92.54 109.38,-116.07 200.52,-116.07 57.15,0 114.81,9.22 155.92,16.42 256.49,44.77 504.93,143.99 748.41,232.93 244.38,89.2 488.92,187.62 743.01,246.53 47.44,10.98 107.91,23 160.98,23 86.89,0 153.88,-32.22 111.48,-153.64 -52.34,-149.78 -160.72,-270.94 -272.93,-378.23 -104.93,-100.18 -253.7,-302.73 -86.41,-425.82 57.67,-42.41 127.53,-57.6 200.51,-57.6 110.16,0 227.4,34.59 320.38,62.43 150.92,45.13 304.13,103.51 441.44,181.48 343.65,195.08 660.46,432.57 1011.66,615.9 198.6,103.6 479.8,238.89 733.8,238.89 132.9,0 258.5,-37.14 360.8,-135.38 161.3,-154.79 2.6,-406.41 -72.4,-560.41 -55,-112.74 -119.3,-265.59 -29,-378.5 93.2,-116.77 237.5,-135.3 377.8,-135.3 8.4,0 16.9,0.09 25.3,0.18 212.8,2.99 426.5,47.67 632.9,95.7 179.8,41.79 358.3,91.75 533,151.36 165.5,56.37 353.3,132.66 456,281.04 38.8,56.11 61.8,140.48 32.5,205.27 -31.6,70.07 -101.9,105.54 -139.3,170.77 -53.8,93.94 51.7,231.52 117.5,292.01 77.2,71.12 181.6,110.63 279.6,142.68 370.2,120.98 841.8,117.21 1112.7,437.67 135.3,160.05 194.6,391.84 118.4,589.56 -12.2,31.52 -27.1,61.64 -44.2,90.78 -43.8,166.99 -152.2,326.26 -262.5,441.19 -299,311.15 -607.3,614.93 -937.6,892.64 -1.8,20.54 -8.1,41.26 -19.8,61.54 573.2,-227.48 1211.5,-466.99 1678.1,-738.11 0.4,-0.27 0.9,-0.53 1.4,-0.79 78.3,-143.73 107.8,-300.18 107.8,-460.77 0.1,-22.56 -0.5,-45.12 -1.6,-67.78 -4,-81.21 -20.2,-175.06 -20.2,-265.32 0,-64.8 8.4,-127.75 35.7,-182.79 69.7,-140.74 285.3,-218.45 412,-287.72 136.9,-74.8 337.6,-182.09 384,-345.39 4.4,-15.28 6.4,-30.12 6.4,-44.52 0.4,-223.53 -494.3,-338.37 -637.6,-379.02 -312.2,-88.59 -634.5,-137.93 -945.5,-230.12 -203.7,-60.32 -571,-257.07 -571.1,-484.03 0,-69.97 35,-142.84 120.5,-215.54 95.1,-80.78 196.1,-107.12 304.2,-118.79 129.2,-79.98 329,-113.17 424.1,-129.68 v 0 c 6.8,-1.23 14.4,-2.28 22.5,-3.16 22.9,-2.55 50.4,-4.13 81.5,-5 11.3,-18.18 16.2,-36.53 16.2,-54.61 0,-88.59 -118.7,-170.68 -199.4,-196.32 -186.8,-59.18 -376.9,-78.49 -568.7,-78.49 -178.8,0 -359,16.77 -539.1,33.54 -180.1,16.77 -360.1,33.45 -538.6,33.45 -59.8,0 -119.4,-1.84 -178.8,-6.23 -529.2,-39.16 -1003.2,-285.7 -1489.1,-475.69 -124.8,-48.82 -291.4,-115.72 -443,-115.72"
           style="fill:#48c1b5;fill-opacity:1;fill-rule:nonzero;stroke:none"
           id="path32" /></g><g
         id="g34"
         transform="scale(1.05327)"><path
           d="m 8162.8,7443.67 c 325.93,108.43 661.84,187.99 1005.8,233.28 958.6,126.27 1977.7,115.26 2939.5,28.2 823.9,-74.44 1574.8,-383.29 2245.6,-863.03 544.9,-389.83 1028.9,-855.43 1492.1,-1337.55 231.1,-240.58 454.2,-661.18 177.2,-973.92 -282.1,-318.53 -801.5,-358.97 -1197.1,-382.71 -314.7,-18.99 -629.8,-10.92 -944.8,-2.85 -174,4.37 -347.9,8.83 -521.8,8.74 -823.6,-0.38 -1646.8,13.95 -2470.2,22.21 -534.1,6.65 -1068.07,12.06 -1602.36,12.06 -690.61,0 -1376.55,-50.03 -2066.09,-69.69 -578.49,-16.42 -1207.76,36.18 -1660.98,437.31 -325.18,287.67 -359.79,792.76 -148.85,1148.99 244.08,412.05 722.89,647.41 1105.43,908.98 508.83,347.77 1060.9,635.16 1646.55,829.98"
           style="fill:#e1b665;fill-opacity:1;fill-rule:nonzero;stroke:none"
           id="path36" /></g><path
         d="m 15164,4356.6 c -0.1,0 -0.1,0 -0.2,0 0.1,0 0.1,0 0.2,0 v 0 m 0.1,0 c 148.9,0 297.8,3.1 446.6,12 -148.8,-8.9 -297.7,-12 -446.6,-12 m -460.2,7.1 c -5.8,0.2 -11.5,0.3 -17.4,0.5 5.9,-0.2 11.6,-0.3 17.4,-0.5 m -43.9,1.1 c -1.2,0.1 -2.5,0.1 -3.7,0.1 1.2,0 2.5,0 3.7,-0.1 m -6.6,0.2 c -2.6,0.1 -5.2,0.1 -7.8,0.2 2.6,-0.1 5.2,-0.1 7.8,-0.2 m -23.4,0.6 c -0.6,0 -1.3,0 -2,0.1 0.7,-0.1 1.4,-0.1 2,-0.1 m -23.6,0.6 c -12,0.3 -24,0.6 -35.9,0.9 11.9,-0.3 23.9,-0.6 35.9,-0.9 m -572.4,8.9 c -0.1,0 -0.2,0 -0.3,0 0.1,0 0.2,0 0.3,0 v 0 m 0,0 c 12.3,0 24.6,0 36.9,0 v 0 0 c -12.3,0 -24.5,0 -36.9,0 m 43.3,0 c -0.1,0 -0.2,0 -0.3,0 v 0 c 0.1,0 0.2,0 0.3,0 m -2204.8,19 c -134.4,1.6 -268.9,3.1 -403.3,4.4 -231.6,2.9 -463.2,5.3 -694.8,7.4 -0.1,0.1 -0.1,0.2 -0.2,0.3 231.7,-2.2 463.3,-4.8 695,-7.7 134.4,-1.3 268.9,-2.8 403.3,-4.4"
         style="fill:#70cfc7;fill-opacity:1;fill-rule:nonzero;stroke:none"
         id="path38" /><g
         id="g40"
         transform="scale(1.04368)"><path
           d="m 14529.3,4174.27 c -0.1,0 -0.1,0 -0.1,0 -146.9,0 -293.8,3.16 -440.7,6.8 -5.6,0.19 -11,0.28 -16.7,0.48 -8.4,0.19 -16.8,0.38 -25.4,0.57 -1.1,0.1 -2.4,0.1 -3.5,0.1 -1,0.09 -1.9,0.09 -2.8,0.09 -2.5,0.1 -5,0.1 -7.5,0.19 -4.9,0.1 -9.9,0.29 -14.9,0.39 -0.6,0 -1.3,0 -1.9,0.09 -2.4,0 -4.8,0.1 -7.2,0.2 v 0 0 c -4.5,0.09 -9,0.19 -13.5,0.28 -11.5,0.29 -23,0.58 -34.4,0.87 -157.5,4.02 -315.1,7.66 -472.6,7.66 -0.1,0 -0.2,0 -0.3,0 v 0 0 c -1.9,0 -3.9,0 -5.8,0 v 0 c -11.8,0 -23.6,0 -35.4,0 v 0 c -0.1,0 -0.2,0 -0.3,0 -690.3,0 -1380.5,10.06 -2070.7,18.21 -128.8,1.53 -257.6,2.96 -386.4,4.21 -222,2.78 -443.9,5.27 -665.9,7.38 -1,1.24 -1.9,2.49 -2.8,3.74 -123.8,176.01 65.8,258.89 211.7,312.35 693,254.29 1467.9,152.35 2160,407.41 93.5,34.39 259.8,102.23 263.3,224.3 3.7,137.49 -145.8,204.28 -250.5,253.04 -124.7,58.16 -435.4,150.53 -246.2,314.56 118.4,102.62 266.8,133.09 420.6,133.09 85.6,0 172.8,-9.39 257.5,-21.08 25.8,-37.27 54.3,-72.82 85.5,-105.97 62,-66.11 133.7,-123.51 211.5,-169.79 86.5,-51.45 180.8,-87.66 278.8,-109.7 106.3,-23.86 221.9,-38.9 331.1,-38.9 421.7,0 686,349.72 697.9,795.93 44.1,32.29 95.6,61.32 134.7,91.79 59.3,46.09 99.4,114.5 91.4,184.64 1.1,10.54 1.3,21.27 0.4,32.09 360.4,-303.06 696.9,-634.58 1023.2,-974.14 156.1,-162.41 308.4,-406.16 308.5,-644.17 0.1,-117.85 -37.2,-234.17 -129.7,-338.7 -284.7,-321.46 -808.9,-362.27 -1208.1,-386.23 v 0 c -1.5,-0.1 -3.1,-0.19 -4.8,-0.29 -142.5,-8.53 -285.2,-11.49 -427.9,-11.49 h -0.1 m 51.3,2661.63 c -28.9,11.69 -56.5,22.81 -81.9,33.54 -190.7,80.58 -395.7,144.96 -604.4,146.02 -1.7,0 -3.5,0 -5.3,0 -213.5,0 -419,-67.84 -622.9,-123.32 -83.7,-22.8 -169.3,-40.24 -255.7,-52.12 -32.6,40.15 -37.4,88.92 8.9,148.51 161.5,208.3 450.8,308.43 719,361.51 258.9,-125.13 508.3,-274.03 747.3,-445.06 31.9,-22.7 63.5,-45.8 95,-69.08"
           style="fill:#e7c17a;fill-opacity:1;fill-rule:nonzero;stroke:none"
           id="path42" /></g><path
         d="m 7422.44,4335.1 c -0.15,0 -0.26,0 -0.41,0 0.15,0 0.26,0 0.41,0 v 0 m 0.03,0 c 58.43,0 116.64,0.9 174.33,2.5 -57.73,-1.6 -115.86,-2.5 -174.33,-2.5 m 177.98,2.6 c 1.6,0 3.24,0.1 4.84,0.1 3.28,0.1 6.61,0.2 9.89,0.3 -3.29,-0.1 -6.59,-0.2 -9.89,-0.3 -1.6,0 -3.24,-0.1 -4.84,-0.1"
         style="fill:#57bdab;fill-opacity:1;fill-rule:nonzero;stroke:none"
         id="path44" /><path
         d="m 7422.44,4335.1 c -0.15,0 -0.26,0 -0.41,0 -551.95,0 -1127.71,81.6 -1556.57,454.8 -1.35,1.2 -2.69,2.3 -4.04,3.5 -1.87,1.7 -3.73,3.3 -5.59,5 v 0 c -200.69,177.5 -296.3,433.7 -296.37,690.9 -0.06,181.7 47.6,363.9 139.59,519.3 226.1,381.7 643.39,619.4 1014.78,858.6 3.42,-8.1 6.88,-16.1 10.4,-24.1 238.83,-544.4 692.59,-983.6 1272.02,-1193.3 0.13,-0.1 0.18,-0.1 0.31,-0.1 0.86,-0.4 1.7,-0.7 2.56,-1 0.13,0 0.19,0 0.31,-0.1 0.86,-0.3 1.64,-0.6 2.51,-0.9 0.34,-0.1 0.7,-0.2 1.04,-0.4 0.47,-0.1 0.96,-0.3 1.44,-0.5 0.43,-0.1 0.86,-0.3 1.3,-0.4 0.13,-0.1 0.28,-0.1 0.41,-0.2 1.17,-0.4 2.35,-0.8 3.53,-1.2 0.13,-0.1 0.24,-0.1 0.37,-0.2 119.78,-42.4 244.8,-75.1 374.4,-96.9 h 0.12 c 1.94,-0.3 3.91,-0.7 5.86,-1 0.47,-0.1 0.92,-0.1 1.39,-0.2 0.4,-0.1 0.83,-0.2 1.23,-0.2 0.89,-0.2 1.81,-0.3 2.71,-0.5 v 0 c 35.02,-5.7 69.91,-10.4 104.69,-14.4 v 0 c 53.07,-6.2 105.88,-10.4 158.44,-12.7 30.59,-1.3 61.1,-2 91.52,-2 1.18,0 2.36,0 3.53,0.1 0.33,0 0.66,0 0.98,0 v 0 0 c 0.12,0 0.24,0 0.36,0 73.03,0 145.45,3.6 217.09,10.7 0.31,0.1 0.62,0.1 0.93,0.1 0.36,0.1 0.68,0.1 1.04,0.1 134.81,13.6 266.79,39.5 394.68,76.7 0.04,0 0.06,0 0.1,0 0.77,0.3 1.54,0.5 2.31,0.7 v 0 c 73.96,21.6 146.5,47.1 217.37,76.1 48.24,-1 96.46,-2.2 144.56,-3.3 -42.23,-79.1 -72.61,-151.3 -72.7,-207.3 -0.06,-34.7 11.47,-63.1 38.95,-83.1 v 0 c 16.82,-12.2 34.79,-17.7 53.77,-17.7 0.01,0 0.02,0 0.03,0 v 0 0 c 100.75,0 229.4,156.5 359.11,303.5 145.6,-0.7 291.5,-2.7 437.3,-2.7 72.9,0 145.9,0.5 218.7,2 C 10898,5526 11026.3,5370 11127,5370 v 0 0 0 c 19,0 37,5.5 53.8,17.7 0.2,0.2 0.3,0.3 0.5,0.4 0,0 0.1,0.1 0.2,0.1 0.1,0.1 0.2,0.2 0.2,0.2 0.1,0.1 0.2,0.2 0.3,0.2 0.1,0.1 0.1,0.1 0.2,0.2 0.3,0.2 0.7,0.5 1,0.8 h 0.1 c 0.1,0.1 0.2,0.2 0.4,0.3 v 0 c 68.7,53.9 25.5,166.6 -47,296.3 23.8,0.6 47.8,1 71.7,1 131.8,0 263.9,-10.6 387.8,-49.9 90.8,-28.7 197.1,-113.5 114.6,-209.5 -76.1,-88.5 -213.6,-136.8 -318.5,-178 -222.9,-87.7 -464.5,-158.2 -697,-213.2 -743.53,-175.7 -1517.12,-111.5 -2249.19,-354.8 -260.46,-86.4 -509.52,-202.3 -745.43,-340.8 -28.47,-0.9 -56.95,-2 -85.5,-2.9 -3.28,-0.1 -6.61,-0.2 -9.89,-0.3 -1.6,0 -3.24,-0.1 -4.84,-0.1 -1.23,0 -2.42,-0.1 -3.65,-0.1 -57.69,-1.6 -115.9,-2.5 -174.33,-2.5 h -0.03"
         style="fill:#dcac5b;fill-opacity:1;fill-rule:nonzero;stroke:none"
         id="path46" /><path
         d="m 12970.5,8686.6 c -4.8,-52.1 -10.3,-103.4 -16.2,-154.4 -49.5,-427 -127.1,-813.6 -210.4,-1142.6 -12.9,-50.2 -25.8,-99 -38.5,-146.3 -169.1,-623.2 -346.7,-1004.6 -346.7,-1004.6 H 9814.68 c 236.62,323.1 437.22,646.2 606.42,967.2 35.9,68.2 70.3,136.1 103.3,204.3 160.7,330.5 288.8,658.7 388.1,981.5 19.8,64.5 38.5,128.3 56.1,192.2 95.7,347.3 159.5,688.4 197.3,1020.4 6.6,59.8 12.9,119.6 17.6,178.6 27.6,316.1 31.6,623.2 18,918.4 -2.6,62.4 -6.3,124 -11,184.9 -24.6,342.6 -72.6,667.6 -135,971.9 v 0.4 c -13.2,63.1 -26.8,125.8 -41.1,187.1 -70.8,306.6 -155.1,589 -243.9,843.2 -19.4,56.5 -39.2,111.2 -59,164.3 -292,782.7 -603.4,1254.8 -603.4,1254.8 l 440.5,293.4 c 423.7,-346.2 779.4,-709.7 1076.9,-1082.8 36.4,-45 71.5,-90.6 105.6,-136 197.7,-261.9 368,-528.6 512.8,-796.6 26,-48.1 51.3,-96.1 75.6,-144.2 172.3,-340 306.5,-682.2 408.2,-1022.2 15,-49.6 29.3,-99 42.9,-148.6 117,-427.6 184.9,-850.2 215.7,-1258 4.3,-52.8 7.7,-105.7 10.6,-158.1 22.3,-409.7 8.8,-802.5 -26.4,-1168.2"
         style="fill:#ae491e;fill-opacity:1;fill-rule:nonzero;stroke:none"
         id="path48" /><path
         d="m 11731.1,13382.5 c -547.6,-46.9 -831.5,-316.9 -960.6,-493.7 -19.4,56.5 -39.2,111.2 -59,164.3 155.8,183.4 437.5,403.5 914,465.4 36.4,-45 71.5,-90.6 105.6,-136"
         style="fill:#a1431b;fill-opacity:1;fill-rule:nonzero;stroke:none"
         id="path50" /><path
         d="m 12319.5,12441.7 c -811.3,-21.3 -1157.9,-424 -1264,-583.2 -13.2,63.1 -26.8,125.8 -41.1,187.1 173.2,203.1 542.1,503.2 1229.5,540.3 26,-48.1 51.3,-96.1 75.6,-144.2"
         style="fill:#a1431b;fill-opacity:1;fill-rule:nonzero;stroke:none"
         id="path52" /><path
         d="m 12770.6,11270.9 c -808.1,31.9 -1340.9,-357.5 -1569.1,-569.6 l -11,184.9 c 276.1,229.2 795.8,548.3 1537.2,533.3 15,-49.6 29.3,-99 42.9,-148.6"
         style="fill:#a1431b;fill-opacity:1;fill-rule:nonzero;stroke:none"
         id="path54" /><path
         d="m 12996.9,9854.8 c -775.7,270.3 -1466.5,-28.9 -1831,-250.5 6.6,59.8 12.9,119.6 17.6,178.6 397.6,220.4 1060.7,465.1 1802.8,230 4.3,-52.8 7.7,-105.7 10.6,-158.1"
         style="fill:#a1431b;fill-opacity:1;fill-rule:nonzero;stroke:none"
         id="path56" /><path
         d="m 12970.5,8686.6 c -4.8,-52.1 -10.3,-103.4 -16.2,-154.4 -835.2,401.2 -1674.7,56.8 -2041.8,-140.5 19.8,64.5 38.5,128.3 56.1,192.2 428.4,204.6 1211.5,458.5 2001.9,102.7"
         style="fill:#a1431b;fill-opacity:1;fill-rule:nonzero;stroke:none"
         id="path58" /><path
         d="m 12743.9,7389.6 c -12.9,-50.2 -25.8,-99 -38.5,-146.3 -903.9,487.4 -1851.6,164.3 -2284.3,-37.4 35.9,68.2 70.3,136.1 103.3,204.3 500.6,201.7 1373.6,419.2 2219.5,-20.6"
         style="fill:#a1431b;fill-opacity:1;fill-rule:nonzero;stroke:none"
         id="path60" /><path
         d="m 11361.4,6389.7 c -92.6,2.8 -182.1,4.1 -268.5,4.1 -12.5,0 -24.8,0 -37.2,-0.1 76.9,42.7 170.8,82.8 260.9,122.7 12.9,-8.6 25.7,-17.3 37.9,-26.3 0.9,-34.1 3.3,-67.6 6.9,-100.4 m -501,366.5 c -43.7,0 -81.6,6.2 -111,21.6 13,27.4 25.5,55.1 37.4,83.1 v 0 c 6.5,14.9 12.7,30 18.7,45.1 1.4,3.6 2.8,7.3 4.2,10.9 0.6,1.5 1.2,3 1.8,4.4 8.6,-69.1 51,-121.7 107.5,-162 -20.4,-2 -40,-3.1 -58.6,-3.1 m 1845,487.1 c -78.7,21.4 -157.9,41.2 -237.9,55.2 9.8,14.3 19.6,28.7 29.2,43.2 69.6,-28.3 139.3,-61 208.7,-98.4 v 0 m -1789.3,28 c 2.6,12.5 5.2,24.9 7.6,37.5 4.1,21.5 8,43.4 11.5,65.2 v 0 c 1.3,7.4 2.4,14.8 3.6,22.2 17.2,4.8 34.6,9.4 52.2,13.9 -25.2,-45 -50.9,-91.4 -74.9,-138.8 m 1827.8,118.3 c -55.9,29 -111.7,55.2 -167.6,78.7 120,201.5 216.9,413.5 289.6,605.6 14.4,38.1 28.1,76.4 41.3,114.8 -45.8,-292.1 -103.1,-560.8 -163.3,-799.1 v 0 0 M 10957,7552.3 c 5,60.7 7.4,121.1 7.4,181.1 -0.1,198.1 -26.9,391.9 -77.4,577.2 8.7,27.1 17.2,54.1 25.5,81.1 v 0 c 146.1,78.5 366.9,180.3 632.5,249.2 -32.9,-129 -72.7,-256.1 -119.1,-381 -88.8,-239.1 -216.2,-455.7 -339.2,-677.3 -44.2,-9.4 -87.5,-19.6 -129.7,-30.3 m 11.6,1031.6 c 95.7,347.3 159.5,688.4 197.3,1020.4 v 0 c 132.2,80.3 307.2,170.9 513.7,240.8 -2.6,-251.8 -17.3,-502.9 -48.4,-750.2 -12.5,-99 -29,-197.3 -49.3,-294.8 -242.1,-55.8 -452.7,-139.5 -613.3,-216.2"
         style="fill:#a03d1f;fill-opacity:1;fill-rule:nonzero;stroke:none"
         id="path62" /><path
         d="m 11183.5,9782.9 c 17.6,201.3 25.6,398.9 25.6,592.1 -0.1,110.2 -2.7,219 -7.6,326.3 91,84.6 230.5,197.4 416.6,300.5 8.7,-76.7 16.3,-153.6 22.9,-230.4 22,-255.2 36.3,-514.1 38.7,-773.2 -191.7,-61 -359.6,-139.6 -496.2,-215.3 m 7,1103.3 v 0 c -24.6,342.6 -72.6,667.6 -135,971.9 v 0.4 0 0 c 51,76.5 157.5,209.3 344.5,328.9 88.1,-338.5 154,-682.7 199.2,-1029.6 -169.2,-88.4 -305.9,-186.3 -408.7,-271.6 m -176.1,1159.4 v 0 c -70.8,306.6 -155.1,589 -243.9,843.2 60.4,82.8 154.8,186 294.3,277.2 96.9,-218.9 179.9,-444.4 250.6,-677.8 15.4,-50.9 30.3,-101.9 44.7,-153 -158.7,-95.2 -270.6,-201.5 -345.7,-289.6 m -302.9,1007.5 v 0 c -149.9,401.7 -304.9,721.6 -420.2,937.9 49.4,21 99.4,32.4 149.9,32.4 61.4,0 123.5,-16.9 185.9,-53.5 2.2,-3.4 4.5,-6.8 6.7,-10.2 138.9,-212.8 261,-431.1 368,-656.3 -126,-79.1 -220.7,-168.4 -290.3,-250.3 m -462.7,1243.4 c -40.1,7.9 -80.2,16.2 -120.6,24.8 l 0.7,0.4 c 28.1,-2.2 55,-6.5 80.6,-13.1 -0.1,0.1 -0.1,0.2 -0.2,0.3 13.6,-3.5 26.7,-7.6 39.5,-12.4"
         style="fill:#a03d1f;fill-opacity:1;fill-rule:nonzero;stroke:none"
         id="path64" /><path
         d="m 10770.5,12888.8 c -19.4,56.5 -39.2,111.2 -59,164.3 v 0 c 69.6,81.9 164.3,171.2 290.3,250.3 21.6,-45.5 42.6,-91.3 63,-137.4 -139.5,-91.2 -233.9,-194.4 -294.3,-277.2 v 0"
         style="fill:#94381d;fill-opacity:1;fill-rule:nonzero;stroke:none"
         id="path66" /><path
         d="m 11055.5,11858.5 v 0 c -13.2,63.1 -26.8,125.8 -41.1,187.1 v 0 c 75.1,88.1 187,194.4 345.7,289.6 13.8,-49.1 27.1,-98.4 39.9,-147.8 -187,-119.6 -293.5,-252.4 -344.5,-328.9"
         style="fill:#94381d;fill-opacity:1;fill-rule:nonzero;stroke:none"
         id="path68" /><path
         d="m 11201.5,10701.3 v 0 c -2.6,62.4 -6.3,124 -11,184.9 v 0 0 c 102.8,85.3 239.5,183.2 408.7,271.6 6.8,-52 13.1,-104 18.9,-156 -186.1,-103.1 -325.6,-215.9 -416.6,-300.5 v 0"
         style="fill:#94381d;fill-opacity:1;fill-rule:nonzero;stroke:none"
         id="path70" /><path
         d="m 11165.9,9604.3 c 6.6,59.8 12.9,119.6 17.6,178.6 v 0 c 136.6,75.7 304.5,154.3 496.2,215.3 0.4,-51 0.4,-102.1 -0.1,-153.1 -206.5,-69.9 -381.5,-160.5 -513.7,-240.8"
         style="fill:#94381d;fill-opacity:1;fill-rule:nonzero;stroke:none"
         id="path72" /><path
         d="m 10912.5,8391.7 c 19.8,64.5 38.5,128.3 56.1,192.2 v 0 c 160.6,76.7 371.2,160.4 613.3,216.2 -11.2,-53.3 -23.5,-106.5 -36.9,-159.2 -265.6,-68.9 -486.4,-170.7 -632.5,-249.2"
         style="fill:#94381d;fill-opacity:1;fill-rule:nonzero;stroke:none"
         id="path74" /><path
         d="m 12705.4,7243.3 v 0 c -69.4,37.4 -139.1,70.1 -208.7,98.4 27.5,41.5 54.1,83.8 79.6,126.6 55.9,-23.5 111.7,-49.7 167.6,-78.7 v 0 c -12.9,-50.2 -25.8,-99 -38.5,-146.3 m -1766.6,152.9 c 7.9,52.2 14,104.3 18.2,156.1 42.2,10.7 85.5,20.9 129.7,30.3 -13.2,-23.9 -26.4,-47.9 -39.5,-71.9 -17.8,-32.5 -36.8,-66.1 -56.2,-100.6 -17.6,-4.5 -35,-9.1 -52.2,-13.9"
         style="fill:#94381d;fill-opacity:1;fill-rule:nonzero;stroke:none"
         id="path76" /><g
         id="g78"
         transform="scale(1.12198)"><path
           d="m 9183.17,12619.9 c 178.08,733.3 -1830.11,694 -2225.96,731.9 219.12,146.4 353.29,270.6 572.54,425 -728.73,113 -946.6,-44.7 -1666.3,-62.3 279.78,216.2 449.39,594.8 840.78,622.2 -789.54,43.2 -1477.9,54.3 -2284.11,-133 342.74,253.3 544.45,524.5 926.67,682.3 -654.4,-13 -1536.42,-397.3 -2137.11,-242.6 849.33,976.9 2604.26,1656.6 3933.65,1389 796.47,-141 1409.97,-950.2 1751.32,-1614.5 269.27,-571.1 245.12,-1162.7 412.05,-1675.3 l -123.53,-122.7"
           style="fill:#6fb72e;fill-opacity:1;fill-rule:nonzero;stroke:none"
           id="path80" /></g><g
         id="g82"
         transform="scale(1.02464)"><path
           d="m 4840.03,15553 v 0 c 1.95,0.4 3.92,0.9 5.85,1.3 -1.93,-0.4 -3.9,-0.9 -5.85,-1.3 m 8.51,2 c 568.57,131.3 1083.69,172.6 1609.88,172.6 -526.14,0 -1041.37,-41.3 -1609.88,-172.6 m 1610.21,172.6 c -0.06,0 -0.08,0 -0.13,0 v 0 c 0.05,0 0.07,0 0.13,0 m -2591.31,266.8 h -0.04 0.04 v 0 m 0.46,0 c 231.52,0.1 483.7,41 739.98,92.9 -256.28,-51.9 -508.47,-92.8 -739.98,-92.9 m -347.45,38.7 c -0.64,0.1 -1.21,0.3 -1.85,0.4 0.64,-0.1 1.21,-0.3 1.85,-0.4 m -1.98,0.5 h -0.07 0.07 m 2325.18,266.3 c 0.92,0 1.94,0.1 2.86,0.1 -0.92,0 -1.94,-0.1 -2.86,-0.1"
           style="fill:#d3e7b2;fill-opacity:1;fill-rule:nonzero;stroke:none"
           id="path84" /></g><g
         id="g86"
         transform="scale(1.10756)"><path
           d="m 4477.66,14388.5 c 347.2,256.7 551.53,531.4 938.73,691.3 v 0 0 0 c -2.56,-0.1 -5.06,-0.1 -7.61,-0.2 -0.85,0 -1.79,0 -2.65,0 -343.92,-8.8 -748.72,-116.9 -1143.24,-196.8 -237.09,-48 -470.4,-85.8 -684.58,-85.9 -0.13,0 -0.3,0 -0.42,0 h -0.05 c -113.09,0 -220.86,10.6 -320.97,35.8 -0.59,0.1 -1.11,0.2 -1.71,0.4 -0.04,0 -0.08,0 -0.12,0 h -0.06 c -1.19,0.3 -2.33,0.6 -3.52,0.9 v 0 c 732.32,842.3 2128.83,1466 3358.94,1466 136.63,0 271.41,-7.7 402.8,-23.7 -204.73,-25.7 -403.74,-75.6 -603,-131.4 -255.06,-71.4 -508.35,-148.1 -764.89,-213.7 -234.77,-60.1 -467.69,-122 -695.73,-204.6 -316.72,-114.5 -628.35,-271 -916.26,-446.8 -66.33,-40.6 -183.25,-103.2 -199.31,-188.6 -16.31,-87.3 125.77,-99.2 191.35,-99.2 6.24,0 11.8,0.1 16.46,0.2 196.05,7 382.83,117.7 565.96,177.9 248.45,81.9 501.7,153.6 761.68,186.7 76.94,9.8 154.56,15.1 232.11,15.1 34.4,0 68.79,-1 103.07,-3.1 79.46,-5 240.68,-26.5 151.64,-135.3 -84.89,-103.7 -224.35,-157.8 -339.95,-218.5 -87.01,-45.7 -209.57,-99.1 -260.24,-189.2 -46.36,-82.4 75.48,-121.7 132.93,-129.5 27.23,-3.7 54.71,-5.3 82.36,-5.3 143.55,0 291.55,43 431.27,58.6 84.36,9.5 171.64,7.4 256.45,10.7 134.47,5.3 269.61,10.2 404.67,10.2 128.09,0 256.12,-4.4 383.31,-17.1 88.11,-8.8 212.25,-16.7 283.33,-77.5 68.32,-58.4 -53.93,-105.9 -93.6,-125.5 -35.82,-17.6 -72.09,-34.3 -108.53,-50.6 -120.21,18.6 -240.55,29.2 -359.59,30 -237.37,12 -466.55,20.3 -693.5,20.3 -0.06,0 -0.08,0 -0.12,0 v 0 0 c -0.05,0 -0.14,0 -0.19,0 -486.8,0 -963.35,-38.2 -1489.35,-159.7 -0.85,-0.2 -1.62,-0.4 -2.46,-0.6 -1.79,-0.4 -3.61,-0.8 -5.41,-1.3"
           style="fill:#5dae33;fill-opacity:1;fill-rule:nonzero;stroke:none"
           id="path88" /></g><g
         id="g90"
         transform="scale(1.25606)"><path
           d="m 8507.35,11272.8 c -550.25,389.4 825.6,1541.1 1069.94,1798.9 -233.51,-30 -396.8,-25 -635.09,-49.7 424.59,503.7 663.99,525.3 1159,935.7 -101.48,-5.9 -205.14,6.1 -308.4,18.2 -217.58,25.4 -433.34,50.8 -622.9,-92.4 506.51,492.2 963.6,903.7 1616.6,1250.4 -129.9,-10.4 -249.8,-9.7 -365.5,-9.1 -222.4,1.4 -428.84,2.7 -659.17,-75 448.57,375.3 1268.07,633.9 1581.97,1090.5 -1145.3,159.7 -2726.03,-412 -3464.59,-1372.3 -453.68,-562.2 -392.23,-1467.2 -232.43,-2114.9 153.69,-542.7 516.96,-926.9 705.32,-1370.2 l 155.25,-10.1"
           style="fill:#6fb72e;fill-opacity:1;fill-rule:nonzero;stroke:none"
           id="path92" /></g><g
         id="g94"
         transform="scale(1.138)"><path
           d="m 8695.54,16298.7 c 0.34,0.4 0.7,0.9 1.04,1.3 -0.34,-0.4 -0.7,-0.9 -1.04,-1.3"
           style="fill:#d3e7b2;fill-opacity:1;fill-rule:nonzero;stroke:none"
           id="path96" /></g><g
         id="g98"
         transform="scale(1.2458)"><path
           d="m 8946.14,13842.6 c -27.22,11.7 -43.91,34.4 -30.75,73 20.15,58.7 73.53,109.1 115.67,152.6 96.49,99.4 200.59,189.5 296.12,290.2 146.09,154.2 301.17,288.7 462.83,425.5 39.33,33.3 407.59,253.1 256.19,307.9 -20.3,7.4 -41.9,10.3 -64.02,10.3 -63.18,0 -131.09,-24.3 -186.23,-40.9 -94.24,-28.4 -192.97,-68.2 -292.26,-72.8 -2.01,-0.1 -3.93,-0.1 -5.86,-0.1 -43.11,0 -45.84,24.4 -26.33,62.3 39.49,77.1 109.25,143 170.41,202.8 149.22,146.1 326.86,262.8 509.09,363.4 260.9,144.2 635.4,202.9 774.5,500.4 3.8,8 1.2,19.6 -8.7,21.6 -32.4,6.5 -64.6,9.5 -96.6,9.5 -130.4,0 -257.3,-48.8 -376.5,-101.5 -180.1,-79.7 -419.9,-69.1 -600.63,-147.9 -419.17,-182.9 -782.71,-295.3 -1157.89,-559.4 -353.35,-248.6 -661.22,-714.8 -977.17,-1008.4 -17.21,-16.1 -34.46,-32.2 -51.51,-48.4 54.36,222.9 145.81,430.7 286.62,605.7 0.3,0.4 0.63,0.8 0.94,1.2 v 0 c 661.17,859.7 1991.72,1410.4 3089.94,1410.4 138.7,0 273.7,-8.8 403.1,-26.8 -316.4,-460.4 -1142.7,-721.1 -1594.91,-1099.5 v 0 0 c 202.31,68.2 386.41,76 578.81,76 28.4,0 57,-0.2 85.8,-0.4 28.8,-0.1 58,-0.3 87.4,-0.3 89.7,0 182.6,1.6 281.1,9.5 -346.9,-184.2 -638.9,-386.4 -912.23,-609.2 -41.5,-13.1 -82.36,-27.1 -122.65,-42.1 -0.72,-0.2 -1.44,-0.5 -2.09,-0.7 -0.4,-0.1 -0.72,-0.3 -1.12,-0.4 -0.32,-0.1 -0.65,-0.2 -0.97,-0.3 -0.48,-0.2 -0.88,-0.3 -1.28,-0.5 -0.32,-0.1 -0.56,-0.2 -0.8,-0.3 -0.48,-0.1 -0.97,-0.3 -1.45,-0.5 -0.24,0 -0.4,-0.1 -0.64,-0.2 -0.48,-0.2 -0.96,-0.3 -1.44,-0.5 -0.25,-0.1 -0.41,-0.1 -0.57,-0.2 -0.56,-0.2 -1.12,-0.4 -1.68,-0.6 -0.08,0 -0.08,0 -0.24,-0.1 -215.93,-77.1 -406.33,-210.2 -572.33,-376.2 -0.16,-0.2 -0.39,-0.5 -0.56,-0.7 -0.32,-0.2 -0.48,-0.4 -0.72,-0.7 -0.32,-0.3 -0.72,-0.7 -1.04,-1 -0.16,-0.2 -0.32,-0.3 -0.48,-0.5 -0.49,-0.4 -0.89,-0.9 -1.29,-1.3 -0.08,-0.1 -0.24,-0.2 -0.32,-0.3 -112.94,-113.7 -214.64,-242.7 -305.26,-379.6"
           style="fill:#5dae33;fill-opacity:1;fill-rule:nonzero;stroke:none"
           id="path100" /></g><g
         id="g102"
         transform="scale(1.00051)"><path
           d="m 10451.2,14065.7 c -285,796.9 -1956.12,-542.1 -2350.41,-750.6 115.21,272.2 164.25,471.3 274.59,751.1 -752.4,-343.3 -859.38,-625.3 -1522.91,-1085.2 129,375 54.64,834.2 404.47,1101 -766.37,-446.1 -1418.27,-859.9 -2057.98,-1532.1 164.93,448.5 186.7,827 447.7,1210.3 -605.18,-415.4 -1194.79,-1319.1 -1852.88,-1544.3 193.82,1438.7 1419.2,3156.9 2829.72,3725.5 833,358.6 1906.44,-21.5 2635.71,-433.5 604.22,-369.1 945.99,-938.3 1418.39,-1315.8 l -226.4,-126.4"
           style="fill:#63b431;fill-opacity:1;fill-rule:nonzero;stroke:none"
           id="path104" /></g><path
         d="m 3796.05,12224.6 c 0.02,0.2 0.04,0.3 0.06,0.5 -0.02,-0.2 -0.04,-0.3 -0.06,-0.5 m 0.34,2.5 c 0.01,0.1 0.04,0.3 0.06,0.4 -0.02,-0.1 -0.05,-0.3 -0.06,-0.4 m 0.34,2.5 c 0.02,0.2 0.03,0.2 0.06,0.4 -0.03,-0.2 -0.04,-0.2 -0.06,-0.4 m 6332.07,2092.1 c -1.2,0.1 -2.5,0.2 -3.8,0.3 -0.6,0.1 -1.2,0.3 -1.8,0.4 2,-0.2 4,-0.3 6,-0.5 l -0.4,-0.2"
         style="fill:#cfe6b2;fill-opacity:1;fill-rule:nonzero;stroke:none"
         id="path106" /><path
         d="m 10128.9,14321.7 h -0.1 l 0.4,0.2 v 0 l -0.3,-0.2"
         style="fill:#954823;fill-opacity:1;fill-rule:nonzero;stroke:none"
         id="path108" /><path
         d="m 10209.5,14308.6 c -25.6,6.6 -52.5,10.9 -80.6,13.1 l 0.3,0.2 c 27.9,-2.2 54.7,-6.5 80.1,-13 0.1,-0.1 0.1,-0.2 0.2,-0.3"
         style="fill:#883c23;fill-opacity:1;fill-rule:nonzero;stroke:none"
         id="path110" /><path
         d="m 3795.72,12222.2 c 0.11,0.8 0.22,1.6 0.33,2.4 0.02,0.2 0.04,0.3 0.06,0.5 0.1,0.7 0.18,1.3 0.28,2 0.01,0.1 0.04,0.3 0.06,0.4 0.09,0.7 0.18,1.4 0.28,2.1 0.02,0.2 0.03,0.2 0.06,0.4 119.12,868.1 612.91,1836.5 1295.29,2592.9 -18.21,-38.6 -35.85,-77.6 -51.74,-117.3 -104.46,-259.8 -162.24,-530.9 -284.48,-784.7 -161.51,-335 -419.24,-632.2 -507.66,-999.4 -10.02,-41.7 -20.3,-130.5 33.11,-130.5 7.4,0 16.02,1.7 26.03,5.4 63.1,23.8 116.11,91.7 160.93,137.7 94.9,97.5 181.34,203.2 270.78,305.6 176.37,201.5 382.02,374 590.01,541.8 107.23,86.5 219.73,165.8 339.15,234.6 39.98,23 173.34,104 259.37,104 27.3,0 49.84,-8.1 63.11,-28.9 36.14,-56.5 -25.48,-170.6 -45.27,-223.4 -22.84,-61 -48.86,-120.5 -70.59,-181.9 -23.24,-66.1 -93.15,-249.2 -3.22,-299.2 19.65,-10.9 40,-15.7 60.64,-15.7 103.3,0 213.53,119 276.32,177.3 151.03,140.6 310.49,266.6 478.53,386.8 194.25,139 404.67,270.6 638.34,329.8 29.74,7.6 83.73,22.7 131.68,22.7 34.9,0 66.61,-8 83.42,-32.8 8.85,-13 12.05,-29.2 12.06,-46.4 -110.56,-42.7 -218.88,-90.7 -323.11,-144.4 10,8.6 20.36,17 31.15,25.2 v 0 0 c -766.76,-446.3 -1418.99,-860.3 -2059.03,-1532.9 165.02,448.8 186.79,827.4 447.93,1210.9 v 0 0 c -605.49,-415.6 -1195.4,-1319.7 -1853.82,-1545 m 6413.58,2086.7 c -25.4,6.5 -52.2,10.8 -80.1,13 v 0 c -2,0.2 -4,0.3 -6,0.5 -249.68,53.1 -504.92,114.9 -772.47,149.2 85.7,30 173.37,53.9 262.87,70.2 52.19,9.5 107.21,15.5 162.2,15.5 76.99,0 153.89,-11.8 222.69,-42.8 89.21,-40.2 155.61,-119 207.11,-199.4 1.3,-2 2.4,-4.2 3.7,-6.2"
         style="fill:#53ac36;fill-opacity:1;fill-rule:nonzero;stroke:none"
         id="path112" /><g
         id="g114"
         transform="scale(1.14898)"><path
           d="m 9328.84,12333.7 c -284.24,680 1555.46,850.5 1931.46,947.8 -234,107.5 -382.3,206.8 -617.5,322.1 685.6,220.7 919.8,102.1 1616.6,195.5 -303,165.6 -524.8,504.7 -906.3,471 754.8,162.7 1417,279.1 2223.2,222 -369.4,191.7 -605.6,422.4 -998.3,516 255.9,35.5 556.8,18.2 861.3,0.9 449,-25.5 905.8,-51 1236.9,92.8 -968.9,811.8 -2765.5,1198.2 -4006.6,736.3 -746.4,-258.1 -1214.03,-1132.6 -1441.36,-1825.6 -172.07,-591.9 -57.97,-1158.7 -140.3,-1678.8 h 240.9"
           style="fill:#63b431;fill-opacity:1;fill-rule:nonzero;stroke:none"
           id="path116" /></g><path
         d="m 10467.3,14391.1 c 0,0 -0.1,0.1 -0.2,0.1 3.7,46.9 6.4,94.1 8.5,141.6 0.1,0.1 0.2,0.2 0.3,0.3 -2.1,-47.6 -4.9,-95 -8.6,-142"
         style="fill:#5bae34;fill-opacity:1;fill-rule:nonzero;stroke:none"
         id="path118" /><path
         d="m 10454.3,14259.8 -0.1,0.1 c 5.3,43.5 9.5,87.3 12.9,131.3 0.1,0 0.2,-0.1 0.2,-0.1 -3.4,-44.1 -7.7,-87.8 -13,-131.3"
         style="fill:#53ac36;fill-opacity:1;fill-rule:nonzero;stroke:none"
         id="path120" /><g
         id="g122"
         transform="scale(1.11637)"><path
           d="m 10324,15871.2 c 0.1,0.1 0.3,0.2 0.4,0.3 -0.2,-0.1 -0.2,-0.2 -0.4,-0.3 m 1.8,1.7 c 0.2,0.2 0.4,0.4 0.6,0.6 -0.2,-0.2 -0.4,-0.4 -0.6,-0.6 m 1.7,1.7 c 0.3,0.3 0.5,0.5 0.8,0.8 -0.3,-0.3 -0.5,-0.5 -0.8,-0.8 m 1.4,1.5 c 185.3,185.4 397.8,333.9 638.7,419.9 -240.9,-86 -453.3,-234.5 -638.7,-419.9 m 639,420 c 0.6,0.2 1.3,0.4 1.9,0.7 -0.6,-0.3 -1.3,-0.5 -1.9,-0.7 m 2.5,0.9 c 0.5,0.2 1.1,0.4 1.6,0.6 -0.5,-0.2 -1.1,-0.4 -1.6,-0.6 m 2.3,0.8 c 0.6,0.2 1.1,0.4 1.7,0.6 -0.6,-0.2 -1.1,-0.4 -1.7,-0.6 m 2.5,0.9 c 0.5,0.2 0.9,0.3 1.5,0.5 -0.6,-0.2 -1,-0.3 -1.5,-0.5 m 2.6,0.9 c 0.4,0.1 0.8,0.3 1.2,0.4 -0.4,-0.1 -0.9,-0.3 -1.2,-0.4"
           style="fill:#4ea738;fill-opacity:1;fill-rule:nonzero;stroke:none"
           id="path124" /></g><g
         id="g126"
         transform="scale(1.13039)"><path
           d="m 9325.24,12604 c -25.65,3.3 -51.22,7 -76.87,10.9 4.69,38.5 8.49,77.2 11.5,116.1 3.27,41.6 5.75,83.6 7.61,125.7 78.2,107.3 169.85,205.1 271.14,290 56.44,47.3 120.31,94.5 188.52,135.5 -140.04,-230.3 -253.98,-459.9 -401.9,-678.2 m 1763.96,1913.8 c -11.5,23.4 -11.7,50.4 5.7,81.2 48.4,85.8 219.8,100.7 305.2,115.2 112.8,19.1 224.4,33.6 336.1,59.6 213.5,49.8 423.4,114.6 641.7,141.3 36,4.4 72.1,5.9 108.1,5.9 38.5,0 77,-1.7 115.5,-3.4 38.6,-1.7 77.2,-3.5 115.7,-3.5 5.2,0 10.3,0.1 15.4,0.1 85.1,1.1 201.1,8.1 249.2,90.4 4.1,6.9 2.3,18.7 -5.6,22.2 -205.5,88.4 -480,27 -659.4,181.9 -137.3,118.6 54,246.1 158.2,280.5 144.1,47.6 302,55.4 452.6,58.5 10.8,0.2 21.7,0.3 32.6,0.3 188,0 377.5,-31.5 564.5,-45.8 130.1,-9.9 260.6,-17.4 391.1,-17.4 4.5,0 9,0 13.4,0 91.4,0.4 192.1,0.5 279,32.5 45.9,16.9 78.9,53.2 54.8,102.3 -41.1,83.7 -203.3,103.5 -281,118.9 -126,25 -254.1,35.6 -381.3,54 -234,33.9 -466,79.9 -698,125.5 -211,41.4 -420.6,83.1 -635.5,97.4 -62.6,4.1 -125.2,6.1 -187.9,6.1 -143.1,0 -286.2,-10.3 -428.1,-28.7 -396.4,-51.6 -780.7,-177.7 -1138.4,-354.1 -242.3,-119.5 -472,-264.9 -684.99,-431.7 107.75,169.1 230.29,328.5 368.09,467.2 0.2,0.1 0.2,0.2 0.4,0.3 0.4,0.5 0.9,1 1.4,1.5 0.2,0.2 0.3,0.3 0.5,0.5 0.4,0.4 0.7,0.8 1.2,1.1 0.2,0.3 0.4,0.6 0.8,0.8 0.1,0.3 0.4,0.5 0.6,0.7 183,183.1 392.8,329.7 630.7,414.7 0.1,0 0.3,0.1 0.3,0.1 0.6,0.2 1.2,0.4 1.9,0.6 0.1,0.1 0.3,0.2 0.6,0.3 0.5,0.1 1,0.3 1.6,0.5 0.2,0.1 0.4,0.2 0.7,0.3 0.5,0.2 1,0.3 1.6,0.5 0.2,0.1 0.5,0.2 0.9,0.3 0.4,0.2 0.8,0.4 1.4,0.5 0.3,0.2 0.7,0.3 1,0.4 0.4,0.2 0.8,0.3 1.3,0.4 0.7,0.3 1.5,0.6 2.3,0.8 370.6,138 789.9,201.5 1222.4,201.5 1039.4,0 2154.6,-367.1 2850,-949.9 -205.9,-89.4 -459.6,-114.4 -730.1,-114.4 -171.6,0 -349.9,10.1 -527,20.1 -177.1,10.1 -353.1,20.1 -519.9,20.1 -124.8,0 -244.5,-5.6 -355.7,-21 v 0 0 c 399.2,-95.1 639.3,-329.6 1014.8,-524.5 -144.3,10.2 -284,15 -420.5,15 -248.9,0 -487.2,-15.9 -722.7,-43.3 -113.6,29.8 -227.1,52.9 -340.1,68.6 v 0 c -30.7,5 -61.5,9 -92.3,12 -48.2,4.6 -96.5,6.9 -144.9,6.9 -336.4,0 -675.1,-108.9 -989.9,-271.8"
           style="fill:#53ac36;fill-opacity:1;fill-rule:nonzero;stroke:none"
           id="path128" /></g><path
         d="m 10662.3,13947.1 c -691.43,489 -1346.92,-1518.4 -1550.08,-1915.7 -62.07,289.1 -136.22,480.4 -206.67,773 -419,-713.6 -344.66,-1006 -623.82,-1763.9 -109.82,381.2 -434.69,714.7 -301.39,1134.2 -371.35,-805.7 -667.57,-1519.2 -805.35,-2437.5 -122.54,462.2 -322.04,784.8 -328.62,1248.6 -257.1,-688 -220.76,-1766.9 -630.45,-2329.4 -667.81,1289.7 -651.34,3401.1 177.2,4677.2 476.29,772.4 1573.92,1077.9 2407.87,1159.4 706.93,44.8 1314.01,-224.9 1917.71,-262.8 l -56.4,-283.1"
         style="fill:#6fb72e;fill-opacity:1;fill-rule:nonzero;stroke:none"
         id="path130" /><path
         d="m 6215.92,8656.4 c -0.54,1 -1.08,2.1 -1.62,3.1 0.53,-1 1.09,-2.1 1.62,-3.1 409.69,562.5 373.35,1641.4 630.45,2329.4 6.58,-463.8 206.08,-786.4 328.62,-1248.6 137.78,918.3 434,1631.8 805.35,2437.5 v 0 c -371.35,-805.7 -667.57,-1519.2 -805.35,-2437.5 -122.54,462.2 -322.04,784.8 -328.62,1248.6 -257.1,-688 -220.76,-1766.9 -630.45,-2329.4 m -2.44,4.7 c -0.26,0.5 -0.47,0.9 -0.73,1.4 0.24,-0.5 0.48,-0.9 0.73,-1.4 m 3444.89,4577.1 c 0.1,0.2 0.13,0.2 0.23,0.4 -0.08,-0.1 -0.15,-0.3 -0.23,-0.4 m 1.09,2 c 0.16,0.3 0.3,0.6 0.46,0.9 -0.14,-0.3 -0.32,-0.6 -0.46,-0.9 m 0.81,1.5 c 45.87,85.4 93.59,168.4 142.92,246.4 -49.32,-78 -97.05,-161 -142.92,-246.4 m 143.2,246.9 c 0.29,0.4 0.46,0.7 0.75,1.2 -0.27,-0.4 -0.48,-0.8 -0.75,-1.2 m 0.95,1.5 c 0.25,0.4 0.43,0.7 0.67,1.1 -0.22,-0.4 -0.45,-0.8 -0.67,-1.1 m 1.46,2.3 c 0.07,0.1 0.14,0.2 0.21,0.3 -0.07,-0.1 -0.15,-0.2 -0.21,-0.3"
         style="fill:#d3e7b2;fill-opacity:1;fill-rule:nonzero;stroke:none"
         id="path132" /><path
         d="m 6215.92,8656.4 c -0.53,1 -1.09,2.1 -1.62,3.1 -0.26,0.5 -0.56,1.1 -0.82,1.6 -0.25,0.5 -0.49,0.9 -0.73,1.4 -469.84,912.3 -598.19,2232.5 -340.94,3378.3 6.62,-228.7 18.71,-456.9 29.91,-682.7 19.68,-400.1 61.78,-797.5 83.71,-1197.2 12.57,-227.9 15.98,-614.4 246.62,-743.7 3.05,-1.7 6.11,-2.5 9.04,-2.5 7.76,0 14.57,5.5 17.75,13.4 36.01,87.9 35.77,187.5 36.45,281.1 0.88,135.8 3.36,263.4 24.5,398.3 40.68,261.5 111.92,514.8 163.71,773.8 17,84.8 37.12,170.6 79.51,246.8 32.43,58.3 79.87,82.8 130.34,82.8 50.76,0 104.58,-24.8 149.21,-64.8 146.51,-131.5 161.03,-360.1 263.15,-521.1 3.72,-5.9 9.75,-8.9 15.79,-8.9 6.03,0 12.07,3 15.83,8.9 252.23,401.2 279.22,893 486.77,1314 41.7,84.8 89.64,169.1 140.11,249.1 18.21,28.9 138.61,197.9 205.41,197.9 12.2,0 22.63,-5.7 30.31,-18.8 115.07,-197.1 59.73,-442.4 178.56,-632.7 3.41,-5.5 10.27,-9.2 16.89,-9.2 4.43,0 8.75,1.6 11.85,5.5 100.41,123.3 140.36,279.9 192.55,427.2 71.37,201.2 186.31,399 304.75,575.9 72.98,109 138.95,248.8 249.54,323.7 21.28,14.4 40.67,20.7 58.38,20.7 115.04,0 158.24,-268.6 172.85,-349.2 1.65,-8.9 9.08,-12.9 16.81,-12.9 5,0 10.13,1.7 13.89,4.9 187.71,160.3 212.75,422.8 323.5,630.9 76.34,143.5 220.7,253.9 382.06,308.7 -39.33,-52.4 -77.87,-108.7 -115.47,-168 -0.07,-0.1 -0.14,-0.2 -0.21,-0.3 -0.27,-0.4 -0.52,-0.8 -0.79,-1.2 -0.24,-0.4 -0.42,-0.7 -0.67,-1.1 -0.06,-0.1 -0.14,-0.2 -0.2,-0.3 -0.29,-0.5 -0.46,-0.8 -0.75,-1.2 -0.08,-0.2 -0.19,-0.3 -0.28,-0.5 -49.33,-78 -97.05,-161 -142.92,-246.4 -0.13,-0.2 -0.23,-0.4 -0.35,-0.6 -0.16,-0.3 -0.3,-0.6 -0.46,-0.9 -0.29,-0.5 -0.57,-1 -0.86,-1.6 -0.1,-0.2 -0.13,-0.2 -0.23,-0.4 -253.64,-473.1 -450.35,-1019.3 -546.15,-1206.8 v 0 c -62.07,289.1 -136.22,480.4 -206.67,773 -419,-713.6 -344.66,-1006 -623.82,-1763.9 -91.59,317.9 -332.75,602.6 -332.98,931.7 -0.04,65.5 9.46,132.8 31.59,202.5 v 0 0 c -371.35,-805.7 -667.57,-1519.2 -805.35,-2437.5 -122.54,462.2 -322.04,784.8 -328.62,1248.6 -257.1,-688 -220.76,-1766.9 -630.45,-2329.4"
         style="fill:#5dae33;fill-opacity:1;fill-rule:nonzero;stroke:none"
         id="path134" /><g
         id="g136"
         transform="scale(1.07809)"><path
           d="m 9889.97,12936.9 c 77.08,781.6 1883.03,-47.7 2284.93,-146.7 -164.9,219.2 -254,387.4 -416.2,614.4 754.6,-139.7 914.4,-369.5 1615.4,-634.2 -200.6,308.6 -236.9,738.8 -612,900.2 790.4,-229 1470.4,-454.8 2197.8,-916.1 -249.6,366.8 -354.5,702.5 -675.6,989 638.5,-237.8 1372.5,-918.6 2015.7,-973.3 -498.3,1251.6 -1988.3,2522.8 -3386.2,2717.1 -830.7,135.3 -1711.5,-448.5 -2275.4,-983.7 -460.8,-468.3 -612.6,-970.3 -952.87,-1416.4 l 204.44,-150.3"
           style="fill:#6fb72e;fill-opacity:1;fill-rule:nonzero;stroke:none"
           id="path138" /></g><path
         d="m 13125.7,13789 c -263,64.8 -1083.7,419.6 -1706.8,500 0.1,0.1 0.1,0.1 0.1,0.1 623.1,-80.5 1443.7,-435.3 1706.7,-500.1 v 0"
         style="fill:#d3e7b2;fill-opacity:1;fill-rule:nonzero;stroke:none"
         id="path140" /><g
         id="g142"
         transform="scale(1.02517)"><path
           d="m 13580.5,16286.8 c -33.8,5.5 -67.8,9.9 -101.8,13.2 34,-3.3 68,-7.7 101.8,-13.2"
           style="fill:#46a53a;fill-opacity:1;fill-rule:nonzero;stroke:none"
           id="path144" /></g><g
         id="g146"
         transform="scale(1.07809)"><path
           d="m 14959.9,12754.5 c -727.4,461.3 -1407.4,687.1 -2197.8,916.1 v 0 0 c 375.1,-161.4 411.4,-591.6 612,-900.2 -701,264.7 -860.8,494.5 -1615.4,634.2 v 0 0 c 162.2,-227 251.3,-395.2 416.2,-614.4 -243.9,60.1 -1005.1,389.2 -1583,463.9 86.3,91.7 246.3,130.8 378.8,130.8 41.3,0 80,-3.8 112.9,-11 207.1,-45.6 367.7,-198.4 585.5,-212.8 0.3,0 0.6,0 0.9,0 8.4,0 16.8,8.5 16.2,17 -4.3,53.6 -35.2,98.1 -67.6,139.4 -32.9,42 -173,172.3 -123.5,230.9 22.8,26.9 73.1,33.5 123.7,33.5 43.8,0 88,-5 114.7,-6.2 87.5,-4 175.8,-3.1 263.2,-10.1 241.4,-19.4 444,-142.8 656.1,-246.5 25.5,-12.5 84.4,-44.3 128.9,-44.3 20.7,0 38.3,6.9 47.9,25.8 26.5,52 -40.2,139 -65.1,178.7 -56.9,90.2 -122.4,174.8 -183,262.6 -19.5,28.1 -41.1,57.4 -54.3,89.3 -17.2,41.4 68.4,56.4 93.4,59 17.8,1.9 35.8,2.8 54,2.8 123.4,0 252.6,-40.5 367.7,-73.6 146.2,-42.1 287,-97.7 429.7,-149.5 228.4,-83 454.1,-230.4 703.4,-236.6 0.1,0 0.3,0 0.4,0 5.4,0 12,3.4 14.3,8.4 80.4,182.4 -163.1,363.8 -123.7,546.1 9.4,43.4 49.7,59.3 103.6,59.3 129.1,0 335.8,-91.2 380.1,-111.5 176.2,-80.7 352.1,-168 508.9,-281.9 64.8,-47.1 130.3,-93.5 200.2,-132.8 34.3,-19.3 83,-46.3 126.4,-46.3 7.1,0 14.2,0.8 21,2.4 121.7,29.3 139.8,125.4 90.8,233.5 -71.4,157.4 -208.3,256 -346.7,351.8 -199.1,137.8 -411.5,259.1 -619,383.5 -437,262 -842.9,569.4 -1326.3,744.6 -333.8,120.8 -686.2,177.5 -1039.8,177.5 -77.4,0 -155,-2.7 -232.3,-8 239.1,91.5 486.3,147.1 732.3,147.1 50.6,0 101.1,-2.3 151.4,-7.2 32.4,-3.1 64.6,-7.3 96.8,-12.5 v 0 c 1397.9,-194.3 2887.9,-1465.5 3386.2,-2717.1 -643.2,54.7 -1377.2,735.5 -2015.7,973.3 v 0 0 c 321.1,-286.5 426,-622.2 675.6,-989"
           style="fill:#5dae33;fill-opacity:1;fill-rule:nonzero;stroke:none"
           id="path148" /></g><g
         id="g150"
         transform="scale(1.0857)"><path
           d="m 8954.09,14337.7 c -19.24,20.9 -39.07,41.7 -60.53,61.6 -101.73,94.6 -233.26,142.8 -354.77,207 -152.58,80.6 -318.62,132.6 -487.08,171.2 -92.97,21.2 -414.28,42.1 -448.75,157.7 -42.35,142 214.72,128.3 200.96,256.4 -15.58,145.2 -396.03,134 -495.74,135.1 -142.83,1.7 -292.96,10.3 -441.7,10.3 -117.85,0 -234.83,-5.4 -346.53,-24.1 -132.91,-22.2 -293.19,-95.4 -439.33,-95.4 -42.3,0 -83.4,6.2 -122.32,21.4 -12.92,224.6 543.26,205.1 618.74,436.9 63.98,196.5 -137.3,243.5 -354.69,243.5 -174.74,0 -359.88,-30.4 -425.95,-38 -237.4,-27.3 -472.4,-93.8 -697.9,-171.1 -57.94,-19.9 -280.59,-117.1 -421.4,-117.1 -62.04,0 -108.19,18.9 -117.37,71.5 -22.52,129.3 643.55,350.8 733.34,374.4 311.48,81.7 634.09,112.8 947.85,191.5 179.17,44.9 372.75,69.5 567.75,69.5 391.76,0 789.06,-99.5 1085.44,-334.2 258.22,-204.4 498.02,-468.9 686.59,-737.9 68.96,-98.4 136.01,-198.9 203.45,-299 18.48,-100.5 39.6,-197.8 62.48,-290.5 29.72,-105 66.25,-204.8 107.46,-300.7"
           style="fill:#80be28;fill-opacity:1;fill-rule:nonzero;stroke:none"
           id="path152" /></g><path
         d="m 9961.61,15364.3 c -103.6,44.3 -168.09,123.8 -240.15,202.1 -44.75,104.1 -84.4,212.6 -116.68,326.5 -24.83,100.7 -47.77,206.3 -67.83,315.4 83.03,-123.3 166.61,-246.1 254.43,-365.1 91.4,-123.8 252.42,-315.5 170.23,-478.9"
         style="fill:#80be28;fill-opacity:1;fill-rule:nonzero;stroke:none"
         id="path154" /><path
         d="m 4796.79,13503.9 c -15.88,307.5 226.31,774.5 386.69,1145.2 13.55,31.5 28.51,62.6 45.27,92.8 361.4,654.8 1295.92,796.4 1960.56,917.6 81.6,14.8 163.71,21.2 246.08,21.2 300.25,0 603.23,-84.6 890.96,-149.9 345.14,-78.5 663.87,-194.6 980.85,-354.4 103.67,-52.2 274.78,-108.3 364.13,-183.3 109.33,-91.9 76.59,-233.7 -64.21,-260.4 -12.05,-2.3 -24.12,-3.3 -36.25,-3.3 -48.81,0 -98.33,16.5 -148.8,32.9 -50.48,16.4 -101.93,32.8 -154.61,32.8 -4.19,0 -8.38,-0.1 -12.59,-0.3 -119.41,-6.2 -246.77,-6.9 -369.45,-12.9 -266.55,-13.3 -537.44,-18.9 -794.58,-100.9 -92.92,-29.6 -364.51,-156.6 -525.22,-156.6 -79.71,0 -132.16,31.3 -121.98,121.2 -8.4,1.2 -16.85,1.8 -25.34,1.8 -106.02,0 -218.12,-93.2 -302.56,-146 -286.72,-179.1 -574.66,-376.2 -856.8,-553.9 -54.46,-34.3 -92.38,-48.9 -117.91,-48.9 -121.6,0 38.09,331.3 32.94,443.2 -3.98,86.9 -43.56,119.4 -101.45,119.4 -151.85,0 -429.45,-224 -519.15,-277.7 -295.44,-177.3 -527.16,-502.7 -756.58,-679.6"
         style="fill:#74bb2c;fill-opacity:1;fill-rule:nonzero;stroke:none"
         id="path156" /><path
         d="m 6166.04,10039.4 c -84.2,32.2 -94.57,361.4 -99.54,450.1 -9.75,175.5 -8.68,354.2 -8.68,529.4 0,569.5 96.82,1184.7 431.04,1662.4 212.56,303.8 515.7,575.6 804.57,804.6 194.69,154.5 418.75,256.9 644.23,357.9 233.91,104.9 469.08,218.1 715.42,293.6 235.8,72.3 505.74,135.8 764.57,135.8 102.26,0 202.79,-9.9 298.8,-33.1 77.27,-18.7 335.65,-35.9 374.65,-121.5 55.4,-122.1 -187.32,-185.6 -253.43,-210.7 -162.53,-61.5 -298.56,-151.9 -403.12,-293.6 -58.75,-79.6 -104.55,-167.2 -149.03,-254.7 -14.86,-29.2 -63.97,-170 -102.85,-174.8 -2.28,-0.3 -4.45,-0.4 -6.52,-0.4 -72.27,0 -17.28,168.9 -28.17,218.5 -10.86,49.4 -32.95,68.3 -60.74,68.3 -71.5,0 -180.66,-125.1 -232.66,-177.8 -161.7,-163.7 -285.4,-355.9 -396.53,-556.8 -59.59,-107.7 -112.4,-187.3 -188.8,-279.9 -33.86,-41.1 -51.14,-115.5 -109.69,-115.5 -0.17,0 -0.34,0 -0.51,0 -16.23,135.5 187.62,355.3 90.42,484.5 -21.23,28.2 -52.94,39.5 -89.68,39.5 -107.43,0 -257.72,-96.6 -313.63,-149 -343.87,-322.7 -481.16,-828.7 -605.49,-1265.4 -13.5,-47.3 -74.58,-290.2 -149.61,-290.2 -5.96,0 -12.02,1.5 -18.14,4.8 -54.91,29.4 -22.07,252.5 -35.81,303.4 -25.02,93.9 -61.43,136.2 -136.12,136.2 -18.69,0 -39.79,-2.6 -63.68,-7.8 -106.12,-22.8 -208.67,-74.2 -277.47,-156.3 -138.66,-165.6 -227.62,-382.7 -272.83,-593.5 -28.17,-132 -35.76,-266.2 -61.59,-398.6 -25.28,-129.6 -17.68,-287.5 -59.38,-409.4"
         style="fill:#80be28;fill-opacity:1;fill-rule:nonzero;stroke:none"
         id="path158" /><g
         id="g160"
         transform="scale(1.21528)"><path
           d="m 8507.27,12704.7 c -139.88,69.9 -191.07,303.8 -238.54,439.1 -79.6,227.2 -209.77,442.1 -250.35,681.8 -27.14,160.2 -9.94,308.5 35.32,448 91.37,281.2 296.74,526.7 482.7,762 151.24,191.3 298.78,391.8 500.46,529.8 126.31,86.5 266.28,148.1 393.82,232.3 110.02,72.5 214.85,148.6 330.54,211.2 210.32,113.9 416.98,236.2 655.68,281.3 31,5.8 63.4,9.8 89.5,9.8 57.5,0 83.9,-19.5 -5.4,-81.3 -138.1,-95.7 -288.8,-166.3 -427.4,-261.1 -120.65,-82.5 -235.52,-165.1 -348.75,-258 -78.25,-64.2 -171.32,-124.4 -243.32,-196.2 -51.34,-51.3 -160.37,-180.8 -135.77,-264.2 16.63,-56.7 92.98,-74.2 162.1,-74.2 29.63,0 57.85,3.2 79.49,7.9 36.05,8 126.07,68.4 181.52,68.4 23.13,0 40.24,-10.5 44.93,-39.6 8.32,-50.7 -80.14,-95.5 -111.16,-122.1 -77.02,-65.9 -153.96,-134.1 -228.68,-202.5 -172.8,-158.2 -352.92,-362.7 -482.69,-557.9 -141.69,-213.1 -299.35,-448.3 -375.63,-694.6 -48.71,-157.2 -98.08,-335.4 -122.52,-497.7 -21.72,-144.9 20.57,-281.7 14.15,-422.2"
           style="fill:#80be28;fill-opacity:1;fill-rule:nonzero;stroke:none"
           id="path162" /></g><g
         id="g164"
         transform="scale(1.09823)"><path
           d="m 9804.41,13869.5 c -2.83,0 -5.74,0.4 -8.65,1.4 -161.72,53.4 147.78,795.8 194.13,890.9 150.01,308.5 355.21,593.2 594.71,838.4 414.5,424.4 1096.3,576.7 1661,653.8 184.4,25.1 378.2,46 567.6,46 103.1,0 204.8,-6.2 303.2,-21.2 83.6,-12.8 646.7,-66.7 630.3,-167.8 -14,-0.4 -28,-0.6 -42,-0.6 -107,0 -212.9,10.8 -318.9,21.6 -105.9,10.9 -211.9,21.7 -319,21.7 -83.6,0 -167.8,-6.6 -253.1,-25 -176.1,-37.8 -689.9,-246.4 -679.4,-475.8 2.9,-63.6 29.2,-81.1 65.5,-81.1 22,0 47.9,6.5 74.6,12.9 26.7,6.5 54.1,13 79.4,13 17.6,0 34,-3.1 48.5,-11.5 118.8,-68.2 -148.1,-166.7 -209.1,-178.3 -173.7,-33.4 -324,-24.8 -492.5,-89.1 -202,-76.9 -378.1,-197.8 -571.1,-298 -353.3,-183.4 -667.1,-437.9 -942.9,-728.6 -102.3,-107.8 -211.65,-200.5 -298.7,-320.7 -17.58,-24.2 -46.44,-102 -83.59,-102"
           style="fill:#74bb2c;fill-opacity:1;fill-rule:nonzero;stroke:none"
           id="path166" /></g><path
         d="m 11160.1,14463 c -10.8,0 -21.3,1.3 -31.4,4.1 -304.6,85.8 252.3,546.1 314.2,623.5 99.5,125.1 194.2,250.1 302.1,368.6 213.5,234.6 428.8,429.6 715.1,568.5 285.6,138.4 585.7,199.9 903.8,199.9 81.2,0 166.1,5.8 249.5,5.8 41,0 81.6,-1.4 121.4,-5.6 125.2,-13.2 247.4,-75 364.8,-119.4 124,-46.9 238.9,-91.8 355.2,-154 69,-36.9 133.1,-87.1 204.1,-118.7 144.9,-64.5 309.9,-90.9 458.4,-146.8 179.1,-67.5 329.8,-182.5 495.2,-277.6 179.4,-103.1 471.1,-194.2 586.1,-374.3 -98.2,1.6 -207.4,49.6 -308.8,63.3 -154.2,20.8 -301.8,45.1 -451.3,93.5 -65.1,21 -280.4,96.3 -426.7,96.3 -83.6,0 -144.7,-24.7 -142.3,-98.2 3.7,-108.7 163.6,-181.3 156.6,-284.9 -3.7,-54.5 -89.4,-69.9 -172.1,-69.9 -52.2,0 -103.1,6.2 -131.4,12.4 -175.4,38.6 -351,112.9 -519.8,176.9 -210,79.7 -442.1,120.9 -664.9,140 -65,5.7 -138.1,17.3 -208.4,17.3 -92.3,0 -179.9,-20 -238.6,-100.2 -105.7,-144.5 112.5,-188 109.1,-321.4 -76.9,-14.8 -151,-21 -223.5,-21 -224.4,0 -434.6,59 -672.1,104.1 -41.1,7.8 -115.4,22.9 -185.7,22.9 -67.4,0 -131.1,-13.9 -158.4,-61.3 -49.2,-85.5 60.2,-130.8 75.1,-202.7 -55.4,-28.4 -97.9,-38.2 -140.7,-38.2 -43.4,0 -87.1,10 -144.6,20.4 -38.2,6.9 -75.3,10.2 -111.8,10.2 -85.8,0 -168.2,-18.1 -253,-48.9 -62.3,-22.8 -150.2,-84.6 -225.2,-84.6"
         style="fill:#80be28;fill-opacity:1;fill-rule:nonzero;stroke:none"
         id="path168" /><path
         d="m 11395.7,7077.4 c -45.4,46.4 -68.5,112.3 -59.6,188.5 8.9,75.3 26.6,147.3 50.3,217.1 91.7,10.2 186.4,16 283.3,16 158.1,0 322.1,-15.4 488.4,-52.1 -32.1,-49.6 -67.5,-97.5 -106.4,-143.7 -152.8,-25 -302,-76.3 -443.5,-136.1 -62.6,-26.5 -138.6,-55 -212.5,-89.7 m 839.9,502.8 c -192,46.5 -381.1,65.7 -562.8,65.7 -76.3,0 -151.2,-3.4 -224.4,-9.6 82.9,179.5 192.8,348.9 273.5,527.9 78,173 133.4,354.5 171.9,541 75.7,8.2 153.3,12.8 232.7,12.8 140.3,0 285.7,-14.3 433.3,-47.9 -34.1,-168.4 -74.6,-335.8 -116.2,-502.5 -51.9,-207.4 -113.7,-406 -208,-587.4 m 351.8,1234.3 c -156.3,35.2 -309.8,50.1 -458.2,50.1 -70.7,0 -140.1,-3.4 -208.1,-9.6 55.5,349 59,712.2 47.8,1067.7 124.9,24.6 257.5,39.4 395.9,39.4 93.9,0 190.5,-6.8 289.2,-21.9 2.3,-145.4 -0.5,-291.4 -0.2,-436.9 0.5,-232 -25.9,-461.4 -66.4,-688.8 m -624,1255.7 c -5.3,129.4 -12,257.5 -18.1,383 -11,226 -24.1,453.1 -43.9,679.7 149.7,56.6 319.1,101.5 507.8,124 28.7,-103.3 56.3,-207 82.4,-311.3 61,-244.9 127.6,-475.6 149.3,-727.4 3.7,-42.9 6.4,-85.9 8.5,-129 -96.1,13.4 -190.2,19.5 -281.9,19.5 -141,0 -276.2,-14.3 -404.1,-38.5 m -76.3,1213.8 c -36.1,354.7 -91.2,707.1 -182.6,1050.9 101.8,36 217.1,65.5 347.4,84.4 29,-74.5 55.6,-150.7 79.2,-229 79.5,-263.3 161.4,-525.7 237.5,-790.1 -176.5,-22.9 -337.2,-64.3 -481.5,-116.2 m -222.5,1192.7 c -8,26.9 -16.3,53.7 -24.8,80.4 -81.2,255.6 -186,504.6 -321.7,735.8 70,26 147,48.1 231.6,64.5 4.4,-6.9 8.9,-13.9 13.3,-20.9 161,-256.4 311.4,-507.2 430.7,-777.3 -121.4,-19.8 -230.9,-48.2 -329.1,-82.5 m -426.6,945 c -19.8,30 -40.1,59.6 -61,88.8 -46.1,64.6 -284.7,270.2 -192.2,366.1 14.1,14.6 30.9,20.6 49.2,20.6 70.3,0 161.8,-89.7 198.9,-130.8 81.4,-90.1 156.7,-180.9 226.8,-277.3 -80.3,-18.2 -154,-41.1 -221.7,-67.4"
         style="fill:#b8581c;fill-opacity:1;fill-rule:nonzero;stroke:none"
         id="path170" /><path
         d="m 11318.1,13292.9 c -25.6,43.6 -52.3,86.6 -80.1,128.8 67.7,26.3 141.4,49.2 221.7,67.4 31,-42.7 61,-86.4 90,-131.7 -84.6,-16.4 -161.6,-38.5 -231.6,-64.5"
         style="fill:#ac521a;fill-opacity:1;fill-rule:nonzero;stroke:none"
         id="path172" /><path
         d="m 11704.5,12334.9 c -12.6,47.5 -25.9,94.8 -39.9,141.8 98.2,34.3 207.7,62.7 329.1,82.5 20.3,-46 39.8,-92.6 58.2,-139.9 -130.3,-18.9 -245.6,-48.4 -347.4,-84.4"
         style="fill:#ac521a;fill-opacity:1;fill-rule:nonzero;stroke:none"
         id="path174" /><path
         d="m 11901.4,11132.9 c -4.5,50.4 -9.2,100.8 -14.3,151.1 144.3,51.9 305,93.3 481.5,116.2 13.7,-47.7 27.3,-95.4 40.6,-143.3 -188.7,-22.5 -358.1,-67.4 -507.8,-124"
         style="fill:#ac521a;fill-opacity:1;fill-rule:nonzero;stroke:none"
         id="path176" /><path
         d="m 11968.9,9922.7 c -1.6,49.3 -3.4,98.5 -5.5,147.5 127.9,24.2 263.1,38.5 404.1,38.5 91.7,0 185.8,-6.1 281.9,-19.5 2.4,-49.6 3.8,-99.2 4.6,-149 -98.7,15.1 -195.3,21.9 -289.2,21.9 -138.4,0 -271,-14.8 -395.9,-39.4"
         style="fill:#ac521a;fill-opacity:1;fill-rule:nonzero;stroke:none"
         id="path178" /><path
         d="m 12559.8,8670.1 c -147.6,33.6 -293,47.9 -433.3,47.9 -79.4,0 -157,-4.6 -232.7,-12.8 10.3,49.6 19.3,99.5 27.3,149.8 68,6.2 137.4,9.6 208.1,9.6 148.4,0 301.9,-14.9 458.2,-50.1 -8.6,-48.2 -17.8,-96.4 -27.6,-144.4"
         style="fill:#ac521a;fill-opacity:1;fill-rule:nonzero;stroke:none"
         id="path180" /><path
         d="m 12158.1,7446.9 c -166.3,36.7 -330.3,52.1 -488.4,52.1 -96.9,0 -191.6,-5.8 -283.3,-16 17.7,52.2 38.8,103.1 62,153.3 73.2,6.2 148.1,9.6 224.4,9.6 181.7,0 370.8,-19.2 562.8,-65.7 -23.7,-45.6 -49.4,-90.1 -77.5,-133.3"
         style="fill:#ac521a;fill-opacity:1;fill-rule:nonzero;stroke:none"
         id="path182" /><path
         d="m 6008.42,10697.6 c 0,0 -2.43,9.3 -7.01,26.8 -4.58,17.8 -11.01,43.7 -17.35,76.7 -6.53,33.2 -13.64,73.5 -19.87,120.1 -5.66,46.5 -12.97,99.2 -15.79,156.9 -5.17,57.8 -6.63,120.4 -7.02,186.8 -0.19,66.3 2.05,136.4 6.92,208.7 7.99,71.9 10.43,147.2 24.95,222.1 6.09,37.6 12.27,75.6 18.41,113.6 7.31,37.9 16.37,75.6 24.46,113.5 16.17,75.8 39.27,149.9 61.68,222.8 19.59,73.8 51.6,142.3 77.27,210.1 24.17,68.5 59.24,129.9 88.28,189.6 15.25,29.5 28.55,59 44.19,86 16.52,26.5 32.5,52.2 47.85,76.8 30.93,48.9 57.78,94.5 85.89,132.1 28.94,37 54.08,69.3 74.84,95.8 41.99,52.5 66.55,81.6 66.55,81.6 5.26,6.2 14.52,7 20.75,1.8 5.26,-4.5 6.63,-11.8 3.71,-17.7 l -0.49,-1.1 c 0,0 -16.81,-34.4 -47.26,-93.1 -15.49,-29.1 -34.25,-64.3 -55.84,-104.8 -21.24,-40.4 -40.19,-88.9 -64.65,-139.2 -11.74,-25.4 -24.02,-51.8 -36.73,-79.2 -11.84,-27.7 -22.66,-57 -34.55,-86.7 -22.7,-59.9 -50.03,-121.5 -70.35,-188.3 -21.53,-66.2 -45.99,-133.7 -64.01,-204.6 -19.89,-70.3 -40.35,-141.6 -54.08,-214.6 -8.19,-36.2 -17.25,-72.2 -24.66,-108.3 -6.33,-36.5 -12.62,-72.7 -18.85,-108.7 -13.79,-71.9 -21.69,-143.5 -31.82,-212.5 -6.82,-69.3 -15.15,-136.4 -19.98,-200.3 -3.8,-63.9 -9.25,-124.5 -10.76,-180.5 -5.16,-112.1 -4.87,-205.9 -4.24,-271.7 0.78,-32.7 1.37,-58.5 1.75,-76 0.78,-17.7 1.27,-27.1 1.27,-27.1 v -0.7 c 0.59,-12.2 -8.87,-22.5 -21.05,-23.1 -10.62,-0.5 -19.78,6.5 -22.41,16.4"
         style="fill:#ffffff;fill-opacity:1;fill-rule:nonzero;stroke:none"
         id="path184" /><g
         id="g186"
         transform="scale(1.18957)"><path
           d="m 9600.4,16262.9 c 0,0 -6.81,-4.1 -19.5,-11.8 -12.36,-8 -30.6,-19.7 -53.8,-34.6 -46.16,-30.4 -111.64,-74.3 -187.3,-130.6 -38.42,-27.3 -78.09,-59.6 -120.8,-92.3 -42.37,-33.4 -85.16,-70.7 -130.3,-108 -43.38,-39.5 -89.53,-78.7 -133.07,-122 -22.2,-21.3 -44.56,-42.7 -67,-64.3 -21.69,-22.1 -42.45,-45.4 -63.89,-68.1 -44.47,-43.8 -84.49,-91.6 -124.16,-138.5 -40.95,-45.8 -76.5,-94.6 -112.57,-140.8 -36.99,-45.5 -67.08,-93.5 -98.1,-137.4 -15.13,-22.3 -30.43,-43.6 -44.3,-64.9 -13.12,-21.7 -25.73,-42.7 -37.92,-62.8 -23.58,-40.7 -48.43,-76.6 -66.62,-110.5 -18.1,-34 -33.82,-63.7 -46.81,-88.1 -26.58,-48.8 -42.72,-76.7 -42.72,-76.7 l -0.49,-0.9 c -3.44,-5.9 -10.98,-7.9 -16.87,-4.5 -5,2.9 -7.21,8.8 -5.74,14.1 0,0 8.72,30.8 25.64,84.7 8.76,27 19.37,59.7 31.58,97.2 12.98,37.3 32.15,77.4 51.72,122 9.96,22.2 20.32,45.4 31.05,69.4 11.47,23.6 25.77,46.7 39.18,71.2 27.91,48.3 54.31,101.6 90.62,150.6 35.23,49.8 67.93,104.3 110.21,152.6 40.27,49.9 81.04,100.8 126.27,147.7 22.61,23.5 44.72,47.5 67.58,70.4 23.71,22.1 47.25,44.3 70.53,66.2 45.48,45.3 96.84,82.4 143.25,121.7 48.09,37.4 95.83,71.9 142.15,103 46.49,30.8 90.79,59.2 133.5,82.8 41.52,25.1 81.71,44.8 116.85,62.7 35.3,17.6 66.83,31.5 92.97,42.6 26.06,11.1 47.08,18.8 61.7,24 14.3,5 21.94,7.6 21.94,7.6 9.67,3.4 20.26,-1.7 23.63,-11.4 2.94,-8.4 -0.51,-17.5 -7.91,-22 l -0.5,-0.3"
           style="fill:#ffffff;fill-opacity:1;fill-rule:nonzero;stroke:none"
           id="path188" /></g><path
         d="m 11737.6,12883.5 c 0,0 12.3,-11.9 34.4,-36.9 22.9,-24.5 53.8,-61.3 92.4,-109.2 36.1,-49.5 82.8,-108 129.4,-179.7 49.6,-69.8 99,-152.7 152.2,-243.6 26.8,-45.4 50.7,-94.8 77.6,-144.8 26.6,-50.2 53.7,-102.4 77.3,-157.9 24.7,-55.1 50.1,-111.7 76.1,-169.6 24.7,-58.4 45.5,-119.7 69,-181.3 49,-122.5 85.3,-253.8 125.2,-386.3 l 14.8,-49.8 11.7,-50.8 c 7.9,-33.9 15.7,-68 23.6,-102 15.6,-68.2 31.3,-136.7 46.9,-205.2 20.6,-138.9 45.6,-277.2 62,-414.2 12.2,-137.6 24.2,-273 31.8,-404.1 1.1,-131.2 2.3,-258.1 3.3,-378.4 -1,-120.2 -13.3,-233.5 -19.4,-338 -3.8,-52.2 -7.4,-102.3 -10.8,-149.9 -2.5,-47.6 -12.6,-92.1 -17.8,-134.3 -12.7,-84 -23.6,-157.3 -32.7,-217.6 -18.5,-120.5 -30.6,-188.9 -30.6,-188.9 -1.4,-8 -9,-13.3 -16.9,-11.9 -7.4,1.3 -12.4,7.7 -12.2,14.9 l 0.1,1 c 0,0 2.1,69.6 8.5,190.6 3.5,60.3 7.7,133.7 12.4,217.8 7.2,83.9 4.8,179 5.4,282.4 0.2,51.7 0.3,105.5 0.4,161.2 -1.1,55.7 4.2,113.2 -1.1,172.2 -6,118 -12.5,242.5 -19.1,371.1 -10.8,128.3 -29.2,260.1 -41.7,394.5 -17.7,133.7 -43.9,268.4 -65.6,403.6 -14.9,66.9 -29.8,133.7 -44.6,200.3 -7.5,33.2 -14.9,66.5 -22.3,99.6 l -11.2,49.6 -14.1,48.6 c -39.1,128.8 -68.8,258.6 -114.4,378.7 -21,60.6 -41.7,120.2 -62,178.6 -22.8,57.4 -45.1,113.6 -67,168.2 -20.4,55.4 -45.3,106.9 -68.2,157.4 -23.2,50.2 -43.6,100 -67,145.7 -47.2,91.2 -88.3,176.4 -130.6,248.6 -39.5,73.9 -79.9,134.5 -111.1,186 -34,49.3 -58.9,89.9 -78,115.1 -18.1,26.1 -29.3,39.8 -29.3,39.8 -7.6,9.5 -6.2,23.3 3.3,31 8.7,7.1 21.3,6.3 29.2,-1.4 l 0.7,-0.7"
         style="fill:#ffffff;fill-opacity:1;fill-rule:nonzero;stroke:none"
         id="path190" /><path
         d="m 9594.16,6238.7 c 0,0 1254.64,349.1 3176.44,0 l 51.3,-178 -3227.74,-61.1 v 239.1"
         style="fill:#e1b665;fill-opacity:1;fill-rule:nonzero;stroke:none"
         id="path192" /><path
         d="m 2913.49,3233.1 c 0,0 -59.88,-37.2 -162.53,-105.2 -51.25,-33.9 -113.23,-75.7 -181.29,-126.5 -33.96,-25.5 -69.43,-53.2 -104.5,-83.9 -33.77,-30.3 -72.55,-65 -92.62,-98.5 -4.73,-7.6 -6.58,-15.4 -5.7,-14.1 0.24,0.5 0.19,4.8 -1.36,8.6 -2.1,4 -3.47,5.6 -3.47,5.6 2.98,-2.2 29.28,-8 52.96,-7.8 49.6,-1.2 105.34,6.8 164.39,16.2 117.61,19.3 242.87,46.4 372.86,71.4 130.03,25.3 264.5,53.2 402.18,77.4 137.59,24.4 277.81,47.8 418.71,68.4 141,19.6 282.73,36 422.9,48.1 140.12,12.8 278.97,17.7 413.68,18 134.76,0.2 265.58,-8.2 389.14,-25.2 123.6,-17.1 239.9,-44.9 343.28,-85.3 51.54,-20.5 99.83,-43.9 143.43,-70.6 43.46,-27.1 81.61,-58 114.79,-89.7 65.09,-65.3 105.91,-136.6 126.77,-198.2 22.31,-61.6 24.5,-112.9 28.06,-146.6 0.59,-34 0.93,-52.2 0.93,-52.2 0.14,-8.1 -6.29,-14.7 -14.37,-14.9 -7.51,-0.1 -13.79,5.4 -14.82,12.7 l -0.14,1.2 c 0,0 -2.39,17.1 -6.82,49.1 -6.87,31.5 -16.13,78.1 -40.59,131.6 -23.77,53.6 -65.48,112.4 -127.26,164.1 -62.55,51.1 -145.38,93 -241.85,124.1 -96.85,30.3 -206.82,49.2 -324.62,60.4 -118,10.4 -243.8,11.8 -374.18,8.5 -130.42,-3.5 -265.28,-15 -402.38,-28 -137.1,-13.5 -276.24,-31.6 -415.15,-52.3 -139.09,-19.4 -278.04,-41.8 -414.76,-65.2 -137,-23.5 -271.76,-46.6 -402.23,-68.9 -130.77,-22.9 -257.54,-43.2 -380.56,-58.5 -61.24,-6.7 -123.41,-14.6 -188.26,-8.9 -32.69,4.4 -64.8,4.3 -108.74,32.4 -10.96,8.3 -22.75,19.5 -30.35,36.1 -7.99,16 -9.75,34.4 -7.94,48.2 3.75,28.4 14.46,45.2 23.77,59.9 39.51,54.7 81.02,85.2 121.37,116.2 40.43,29.8 79.56,55.5 116.63,78.8 74.25,46.5 140.32,83.5 194.98,113.5 54.52,30.2 98.71,51.3 128.52,66.3 30.07,14.6 46.1,22.4 46.1,22.4 10.96,5.3 24.16,0.7 29.42,-10.2 4.97,-10.3 1.36,-22.4 -8.08,-28.3 l -0.3,-0.2"
         style="fill:#ffffff;fill-opacity:1;fill-rule:nonzero;stroke:none"
         id="path194" /><g
         id="g196"
         transform="scale(1.16985)"><path
           d="m 15870.6,3713.54 c 0,0 11.1,0 31.8,-0.17 20.6,-0.59 51,-1.28 89.4,-6.24 38.6,-5.04 85.5,-12.05 138.9,-30.86 26.6,-9.57 55.1,-21.79 83.7,-41.62 28.1,-19.49 58.5,-49.67 71.8,-93.61 13.8,-43.59 6.4,-91.46 -9.4,-129.58 -8.2,-19.07 -17.7,-37.62 -28.8,-54.54 -5.1,-8.98 -11.2,-16.76 -17.1,-24.96 l -8.9,-12.31 -2.3,-3.08 -0.5,-0.77 c 2.5,2.74 -4.1,-4.53 -3.6,-4.02 l -1.2,-1.28 -4.8,-5.04 c -25.7,-26.84 -48.3,-54.96 -85.6,-81.89 -17.1,-13.17 -34.7,-28.55 -52.6,-39.67 -17.8,-10.76 -35.7,-21.79 -53.9,-32.82 -73,-43.08 -151.1,-79.16 -232.2,-110.7 -81,-30.77 -164.3,-58.29 -248,-82.74 -84.2,-23.08 -168.7,-44.37 -252.2,-62.4 -41.6,-9.83 -83.3,-18.04 -124.4,-25.3 -41.2,-7.44 -81.7,-15.56 -121.8,-21.72 -80,-14.02 -157.7,-24.44 -231.5,-33.76 -73.6,-10 -143.5,-16.59 -208,-22.83 -128.9,-12.05 -236.7,-17.78 -312.2,-20.77 -75.6,-1.96 -118.8,-3.16 -118.8,-3.16 -6.8,-0.17 -12.6,5.3 -12.9,12.22 0,6.33 4.5,11.63 10.5,12.74 0,0 42.3,8.04 116.3,22.22 73.8,13.68 179.3,33.34 305.9,56.85 63,12.22 131.3,25.47 203.6,39.49 72.1,14.19 147.9,30.43 226.2,46.76 78.1,16.67 158.6,35.47 239.9,55.14 81.6,19.06 163.4,41.28 244.6,64.96 81.4,23.08 161.6,48.9 239,77.53 76.5,30.01 151.9,59.49 218.6,96.68 16.6,9.32 33.1,18.55 49.4,27.78 16,9.32 28.3,19.66 42.9,28.98 28.1,15.64 55.9,44.88 82.5,69.92 l 5.1,4.79 1.2,1.11 c 0.9,0.94 -5.2,-5.9 -2.4,-2.65 l 0.5,0.6 1.9,2.31 7.8,9.48 c 5.1,6.33 10.6,12.4 14.7,18.81 9.4,12.65 16.5,25.3 23.4,37.61 12.8,24.79 16.6,47.19 12.7,65.99 -6.6,38.64 -54.3,72.06 -96.7,92.32 -43.6,20.6 -86.4,33.68 -121.6,43 -71,18.46 -113,23.68 -113,23.68 h -0.3 c -10.3,1.28 -17.7,10.68 -16.4,21.03 1.2,9.57 9.3,16.49 18.8,16.49"
           style="fill:#ffffff;fill-opacity:1;fill-rule:nonzero;stroke:none"
           id="path198" /></g><path
         d="m 15591.4,6859.7 c -93.5,137 -313.2,210.1 -459.4,271.8 -199,84 -413,151.4 -630.8,152.5 -224.7,1.2 -441,-70.4 -655.6,-128.9 -165.9,-45.1 -338.4,-70.1 -510.9,-73.1 -148.9,7.9 -296.9,31.8 -440.1,70.8 -214.6,58.4 -430.9,129.9 -655.6,128.8 -217.9,-1.2 -431.9,-68.5 -630.8,-152.5 -146.1,-61.7 -365.9,-134.8 -459.3,-271.8 -66.4,-97.4 -19.2,-206 65.1,-271.4 40.8,-31.7 94.5,-62.1 140.5,-95.8 12.5,-465.7 288.4,-830.6 728.6,-830.6 113.8,0 234.4,15.6 345.3,40.5 102.4,22.9 200.8,60.7 291,114.4 81.4,48.4 156,108.3 220.8,177.2 63.8,68 116.7,145.1 159.9,227.7 33.3,63.8 60,130.6 85.5,197.8 30.5,80.4 46.9,150.6 131,191 66.1,31.6 133.8,1.9 179.2,-52.2 32.3,-38.6 41.4,-90.6 58.8,-136.4 25.4,-67.2 52.1,-134.1 85.5,-197.8 43,-82.6 96,-159.6 159.9,-227.6 64.7,-69 139.5,-128.9 220.7,-177.2 90.3,-53.7 188.7,-91.5 291,-114.5 110.9,-24.9 231.6,-40.6 345.5,-40.6 440.2,0 716,365 728.4,830.7 46.1,33.7 99.8,64 140.6,95.8 84.3,65.5 131.4,174 65.2,271.4"
         style="fill:#6e539d;fill-opacity:1;fill-rule:nonzero;stroke:none"
         id="path200" /><path
         d="m 15591.4,6897.6 c -93.5,137 -313.2,210.1 -459.4,271.9 -199,84.1 -413,151.3 -630.8,152.4 -224.7,1.2 -441,-70.3 -655.6,-128.7 -165.9,-45.2 -338.4,-70.2 -510.9,-73.2 -148.9,7.8 -296.9,31.7 -440.1,70.7 -214.6,58.4 -430.9,130 -655.6,128.8 -217.9,-1.1 -431.9,-68.4 -630.8,-152.4 -146.1,-61.8 -365.9,-134.9 -459.3,-271.9 -66.4,-97.3 -19.2,-205.9 65.1,-271.4 40.8,-31.7 94.5,-62.1 140.5,-95.8 12.5,-465.6 288.4,-830.6 728.6,-830.6 113.8,0 234.4,15.7 345.3,40.6 102.4,22.9 200.8,60.7 291,114.4 81.4,48.3 156,108.3 220.8,177.3 63.8,67.9 116.7,144.9 159.9,227.5 33.3,63.8 60,130.6 85.5,197.8 30.5,80.5 46.9,150.7 131,191 66.1,31.7 133.8,2.1 179.2,-52.2 32.3,-38.5 41.4,-90.6 58.8,-136.3 25.4,-67.3 52.1,-134.1 85.5,-197.9 43,-82.5 96,-159.6 159.9,-227.5 64.7,-69 139.5,-129 220.7,-177.3 90.3,-53.6 188.7,-91.4 291,-114.4 110.9,-25 231.6,-40.7 345.5,-40.7 440.2,0 716,365.1 728.4,830.7 46.1,33.7 99.8,64.1 140.6,95.8 84.3,65.5 131.4,174.1 65.2,271.4"
         style="fill:#7e61b7;fill-opacity:1;fill-rule:nonzero;stroke:none"
         id="path202" /><path
         d="m 15255.1,6551.9 c 0,-428.6 -237.4,-768.9 -621.2,-768.9 -206.2,0 -387.7,49.7 -535.5,133 -29.1,16.4 -56.5,34.1 -82.9,52.9 -35.7,25.7 -68.9,53.3 -99.5,83 -59,57 -108.3,121.1 -146.3,190 -60.4,109.2 -92.9,230.6 -92.9,355.8 0,491.9 544.6,597.8 925.9,571.4 5.3,-0.4 10.7,-0.8 15.9,-1.1 122.1,-9.8 231.2,-32.5 322.9,-72.8 25.8,-11.2 50.3,-23.9 73.2,-38 45.4,-28.1 85.2,-62 118.5,-102.3 78.4,-94.7 121.9,-225.6 121.9,-403"
         style="fill:#28384b;fill-opacity:1;fill-rule:nonzero;stroke:none"
         id="path204" /><path
         d="m 11305.6,6822.2 c 0,-25.7 -20.8,-46.4 -46.6,-46.4 -25.4,0 -46.2,20.7 -46.2,46.4 0,25.6 20.8,46.4 46.2,46.4 25.8,0 46.6,-20.8 46.6,-46.4"
         style="fill:#644b8e;fill-opacity:1;fill-rule:nonzero;stroke:none"
         id="path206" /><path
         d="m 15527.4,6822.2 c 0,-25.7 -20.8,-46.4 -46.4,-46.4 -25.6,0 -46.4,20.7 -46.4,46.4 0,25.6 20.8,46.4 46.4,46.4 25.6,0 46.4,-20.8 46.4,-46.4"
         style="fill:#644b8e;fill-opacity:1;fill-rule:nonzero;stroke:none"
         id="path208" /><path
         d="m 13063.4,6597.7 c 0,-428.6 -382.2,-814.7 -957.2,-814.7 -113,0 -213.2,29.4 -298.5,82 -25.8,15.9 -50.2,33.8 -73.1,53.9 -32.2,27.6 -61.4,59.3 -87.6,94.2 -46.8,61.8 -84.1,133.9 -110.9,213.6 -33.4,98.5 -51,208.5 -51,325.2 0,428.4 253.8,585.5 636.4,616.1 86.9,6.9 183.2,7 280,-2.9 112.8,-11.6 226.3,-36.8 326.7,-80.4 24.7,-10.7 48.4,-22.7 71.4,-35.7 45.8,-26 87.4,-56.9 123.6,-93.2 86,-86.2 140.2,-203 140.2,-358.1"
         style="fill:#28384b;fill-opacity:1;fill-rule:nonzero;stroke:none"
         id="path210" /><path
         d="m 11647,6013.1 v 0 c -46.8,61.8 -84.1,133.9 -110.9,213.6 l 865.4,938.4 c 112.8,-11.6 226.3,-36.8 326.7,-80.4 L 11647,6013.1"
         style="fill:#566780;fill-opacity:1;fill-rule:nonzero;stroke:none"
         id="path212" /><path
         d="m 11807.7,5865 v 0 c -25.8,15.9 -50.2,33.8 -73.1,53.9 l 1065,1130.1 c 45.8,-26 87.4,-56.9 123.6,-93.2 L 11807.7,5865"
         style="fill:#566780;fill-opacity:1;fill-rule:nonzero;stroke:none"
         id="path214" /><path
         d="m 13916,6051.9 v 0 c -59,57 -108.3,121.1 -146.3,190 l 833,927.2 c 5.3,-0.4 10.7,-0.8 15.9,-1.1 122.1,-9.8 231.2,-32.5 322.9,-72.8 L 13916,6051.9"
         style="fill:#566780;fill-opacity:1;fill-rule:nonzero;stroke:none"
         id="path216" /><path
         d="m 14098.4,5916 v 0 c -29.1,16.4 -56.5,34.1 -82.9,52.9 l 999.2,1088.3 c 45.4,-28.1 85.2,-62 118.5,-102.3 L 14098.4,5916"
         style="fill:#566780;fill-opacity:1;fill-rule:nonzero;stroke:none"
         id="path218" /><path
         d="m 13074.7,7056.4 c 0,0 9.4,-0.7 25.8,-2 16.1,-2 39.4,-2.7 67.2,-4.9 27.7,-1.8 60,-3.9 94.6,-6.2 34.6,0.1 71.4,-3.6 108.1,-2.9 36.7,0.8 73.8,-2 108,1.1 34.3,2.7 67,1.1 94.4,4.8 54.9,6 93.1,7.6 93.1,7.6 h 0.6 c 2.8,0.2 5.2,-2 5.3,-4.8 0.1,-2.2 -1.3,-4.2 -3.2,-5 0,0 -35.3,-13.3 -90.5,-30 -27.4,-9 -60.8,-11.8 -96.2,-17.5 -17.8,-2.7 -36.2,-5.3 -55,-5.1 -18.8,-0.5 -37.8,-1.1 -56.9,-1.7 -38.2,-0.2 -76.2,3.8 -111.8,6.8 -35.3,5.6 -68.3,9.8 -96,17.2 -55.7,12.9 -91,27.8 -91,27.8 -4,1.7 -5.8,6.2 -4.2,10.1 1.3,3.1 4.5,4.9 7.7,4.7"
         style="fill:#ffffff;fill-opacity:1;fill-rule:nonzero;stroke:none"
         id="path220" /><path
         d="m 14726.7,5872.2 c 0,0 10.1,4.8 27.6,14.4 17.5,9.2 41.8,24 69.6,43 28.2,18.5 58.9,43 90.5,70.2 14.9,14.5 31.2,28.6 45.7,45 15.4,15.5 29.8,32.3 42.9,50.1 14.7,16.6 26,35.7 38.3,53.6 12.7,17.8 21.6,37.5 32.2,55.4 10.4,18.1 17,37.3 25.4,54.6 8.6,17.3 13.4,34.9 19.1,50.8 4.8,16.1 12,30.4 14.6,43.9 3.4,13.5 6.4,25.3 8.8,34.9 5.5,19.5 8.5,30.6 8.5,30.6 l 0.1,0.4 c 0.7,2.7 3.6,4.3 6.3,3.5 2.2,-0.6 3.7,-2.7 3.7,-4.9 0,0 0,-11.6 -1.1,-32.1 -0.6,-10.2 -1.2,-22.7 -2,-37 -0.1,-14.5 -4.3,-30.2 -7.3,-47.7 -3.6,-17.3 -6.1,-36.7 -13.5,-55.8 -6.9,-19.1 -11.7,-40.5 -21.8,-60.5 -10.3,-19.8 -17.9,-42.1 -31.4,-61.6 -12.7,-19.8 -24.5,-40.8 -40,-59.2 -14.5,-19.1 -30.3,-37.1 -47.1,-53.6 -15.7,-17.8 -34.5,-31.4 -51.2,-46.3 -35.4,-27.4 -70.3,-50.1 -102.4,-65.5 -31.5,-16.4 -59.8,-25.8 -79.3,-32.4 -19.6,-6.3 -31.5,-8.2 -31.5,-8.2 -4.1,-0.8 -8.2,1.9 -9,6 -0.7,3.4 1.3,6.9 4.3,8.4"
         style="fill:#ffffff;fill-opacity:1;fill-rule:nonzero;stroke:none"
         id="path222" /><path
         d="m 11562.5,6554 c 0,0 -0.8,12 1,32.6 2.2,20.4 5.1,50.1 14.1,84.4 8,34.7 22.4,73.9 41.3,114.4 10.8,19.5 20,41 33.8,60.1 12.4,20.1 26.4,39.5 41.9,57.9 14.5,19.1 32.4,35.3 48.8,52.1 16.1,17.4 36.2,29.7 53.2,44.2 17.2,14.3 37.1,23.7 54.2,34.7 17,11.4 35.3,18.1 51.5,25.4 16.3,6.9 30.6,14.5 44.8,17.7 13.8,3.9 25.8,7.4 35.7,10.2 19.7,5.5 31,8.1 31,8.1 2.8,0.7 5.5,-1.1 6.1,-3.8 0.5,-2.3 -0.6,-4.5 -2.5,-5.6 l -0.4,-0.2 c 0,0 -10.1,-5.5 -27.9,-15 -8.9,-4.5 -19.7,-10 -32.1,-16.3 -12.6,-5.6 -24.9,-15.7 -39.6,-24 -14.3,-9.1 -30.3,-17.6 -45.4,-29.9 -15,-12 -32.2,-22.6 -47.5,-36.8 -15.2,-14.3 -32.4,-27.3 -47,-43.6 -14.7,-16 -30.9,-31.2 -43.7,-49.3 -14.5,-16.7 -27.7,-34.5 -39.4,-52.9 -12.8,-17.7 -23,-36.8 -33.8,-54.6 -19.6,-36.7 -36.7,-72.1 -48.5,-103.7 -12.4,-31.4 -21.5,-58.3 -26.5,-77.4 -5.6,-19.2 -8,-30.2 -8,-30.1 -0.9,-4.2 -5,-6.8 -9.2,-5.9 -3.3,0.8 -5.7,4 -5.9,7.3"
         style="fill:#ffffff;fill-opacity:1;fill-rule:nonzero;stroke:none"
         id="path224" /><path
         d="m 10935.2,7374 c -3.5,-21.8 -7.4,-43.7 -11.5,-65.2 -26.4,-136.2 -64.7,-267.1 -114,-391.9 -7.3,-18.8 -14.8,-37.6 -22.9,-56 -261.7,-614.5 -787.52,-1072 -1415.39,-1255.6 -197.61,-57.7 -404.91,-88.5 -617.58,-88.3 -83.8,-0.2 -168.28,4.7 -253.4,14.6 -34.78,4 -69.67,8.8 -104.69,14.4 -768.96,125.4 -1380.16,633.1 -1671.51,1297.1 -46.29,105.5 -84.63,215.2 -113.92,327.5 -0.34,1.2 -0.48,2.3 -0.77,3.5 -13.74,52.3 -25.29,105.3 -35.13,158.8 -0.25,0.9 -0.34,1.8 -0.54,2.6 -43.65,241.4 -47.64,494.2 -6.04,750.1 67.62,414.5 246.23,783.2 500.46,1080.7 26.89,31.4 54.47,62 83.12,91.7 17.54,18.3 35.37,36.4 53.59,54 83.85,82 173.93,157.1 269.82,224.6 456.99,323.2 1036.33,474 1632.43,376.9 26.75,-4.4 53.25,-9.2 79.51,-14.5 47.36,-9.4 94.32,-20.4 140.46,-32.8 343.19,-92 648.72,-262.1 900.18,-487.8 l 0.8,-0.8 c 52.5,-47.2 102.9,-96.7 150.6,-148.8 6.8,-7.4 13.4,-14.7 20.2,-22.3 430.8,-480.9 648.2,-1145.4 536.2,-1832.5"
         style="fill:#50c4b9;fill-opacity:1;fill-rule:nonzero;stroke:none"
         id="path226" /><path
         d="m 10923.6,7308.8 c -26.3,-136.2 -64.6,-267.1 -113.9,-391.9 -7.3,-18.9 -14.9,-37.5 -22.9,-56 -261.6,-614.5 -787.52,-1072 -1415.39,-1255.6 -197.61,-57.7 -405.01,-88.4 -617.49,-88.3 782.41,1452.7 300.91,2672.9 300.91,2672.9 895.78,-107.1 1553.17,-595.7 1868.77,-881.1"
         style="fill:#f9d417;fill-opacity:1;fill-rule:nonzero;stroke:none"
         id="path228" /><path
         d="M 9043.52,8247.9 C 7822,8288.5 6982.1,7618.6 6599.01,7228.6 c -0.34,1.2 -0.58,2.4 -0.87,3.5 -8.63,33.4 -16.57,67.1 -23.73,100.8 -0.25,0.9 -0.34,1.8 -0.54,2.6 -43.65,241.4 -47.64,494.2 -6.04,750.1 67.62,414.5 246.23,783.2 500.46,1080.7 26.89,31.4 54.47,62 83.12,91.7 17.54,18.3 35.37,36.4 53.59,54 1541.42,-104.7 1838.52,-1064.1 1838.52,-1064.1"
         style="fill:#f9d417;fill-opacity:1;fill-rule:nonzero;stroke:none"
         id="path230" /><path
         d="m 10378.8,9228.8 c -273.3,-59.1 -888.41,-494.2 -1071.6,-857.2 l -288.24,167.6 c 0,0 323.81,607.1 167.8,1359.8 47.46,-9.4 94.32,-20.4 140.46,-32.8 343.34,-92 648.72,-262.2 900.18,-487.9 l 0.2,-0.1 0.6,-0.6 c 52.5,-47.2 102.9,-96.7 150.6,-148.8"
         style="fill:#f9d417;fill-opacity:1;fill-rule:nonzero;stroke:none"
         id="path232" /><path
         d="m 9022.41,7774.3 c -26.59,0 -53.52,2.1 -80.62,6.5 -227.5,37.1 -393.57,222.8 -415.47,441.6 131.54,17.6 268.65,27.2 411.16,27.2 34.98,0 70.4,-0.5 106.04,-1.7 v 0 0 c 0,0 -64.82,209.3 -291.07,443.2 78.45,50.5 171.25,79.2 268.74,79.2 26.62,0 53.57,-2.1 80.7,-6.6 2.81,-0.4 5.6,-0.9 8.4,-1.4 -47.59,-141.1 -91.33,-223.1 -91.33,-223.1 l 288.24,-167.6 c 30.44,60.3 72.8,122.6 123.56,184.9 71.2,-102.4 104.22,-231.5 82.52,-364.3 -4.92,-30.2 -12.48,-59.4 -22.38,-87.2 -138.12,37.4 -283.64,66.7 -436.07,84.9 0,0 57.65,-146.2 100.64,-397.4 -42.66,-11.9 -87.33,-18.2 -133.06,-18.2"
         style="fill:#46aba3;fill-opacity:1;fill-rule:nonzero;stroke:none"
         id="path234" /><path
         d="m 9155.47,7792.5 c -42.99,251.2 -100.64,397.4 -100.64,397.4 152.43,-18.2 297.95,-47.5 436.07,-84.9 -54.88,-154.5 -182.07,-269.7 -335.43,-312.5"
         style="fill:#dab914;fill-opacity:1;fill-rule:nonzero;stroke:none"
         id="path236" /><path
         d="m 8526.32,8222.4 c -4.24,42.4 -3.08,85.9 4.08,129.9 23.65,145 107.62,265.1 222.05,338.8 226.25,-233.9 291.07,-443.2 291.07,-443.2 -35.64,1.2 -71.06,1.7 -106.04,1.7 -142.51,0 -279.62,-9.6 -411.16,-27.2"
         style="fill:#dab914;fill-opacity:1;fill-rule:nonzero;stroke:none"
         id="path238" /><path
         d="m 9307.2,8371.6 -288.24,167.6 c 0,0 43.74,82 91.33,223.1 134.93,-24.3 247.67,-101.1 320.47,-205.8 -50.76,-62.3 -93.12,-124.6 -123.56,-184.9"
         style="fill:#dab914;fill-opacity:1;fill-rule:nonzero;stroke:none"
         id="path240" /><path
         d="m 9464.86,8200.1 c -39.76,-244.6 -270.5,-410.8 -515.13,-370.9 -244.67,39.9 -410.86,270.6 -370.9,515.2 39.9,244.8 270.49,410.7 515.26,370.9 244.68,-39.8 410.72,-270.5 370.77,-515.2"
         style="fill:#f9d417;fill-opacity:1;fill-rule:nonzero;stroke:none"
         id="path242" /><path
         d="m 7840.59,6668.4 c -89.85,0 -181.8,13.8 -260.68,30.1 -273.76,56.5 -548.6,215.1 -707.48,447.5 -45.78,67 -82.39,150.7 -109.16,239.4 262.3,235.2 649.83,514.1 1151.52,690.2 -3.57,-163.4 24.16,-326.8 88.59,-478.3 86.68,-203.9 267.04,-399.6 237.18,-636 -29.15,-231.1 -209.95,-292.9 -399.97,-292.9 m 514.17,2328.1 c -213.49,121.5 -489.29,225.8 -843.77,281.5 201.96,172.9 445.51,322.9 672.01,322.9 39.42,0 78.39,-4.6 116.46,-14.4 100.22,-25.6 232.05,-161.9 223.14,-275.8 -9.36,-120.5 -81.12,-220.2 -167.84,-314.2"
         style="fill:#8fd9d4;fill-opacity:1;fill-rule:nonzero;stroke:none"
         id="path244" /><path
         d="m 6763.27,7385.4 c -36.82,122 -55.03,253.4 -52.88,363.3 8.48,438.7 200.63,866.8 478.15,1201.4 79.85,96.2 192.52,216.8 322.45,327.9 354.48,-55.7 630.28,-160 843.77,-281.5 -108.26,-117.5 -239.82,-226.2 -302.31,-355.6 -84.43,-174.8 -133.4,-370.1 -137.66,-565.3 -501.69,-176.1 -889.22,-455 -1151.52,-690.2"
         style="fill:#fce53d;fill-opacity:1;fill-rule:nonzero;stroke:none"
         id="path246" /><path
         d="m 8750.39,5516.9 c -30.42,0 -60.93,0.7 -91.52,2 29.91,-1.2 59.74,-1.9 89.49,-1.9 1.82,0 3.65,0 5.47,0 0.05,0 0.08,0 0.14,0 -0.05,0 -0.05,0 -0.05,0 0.34,0 0.64,0 0.98,0 v 0 c -0.32,0 -0.65,0 -0.98,0 -1.17,-0.1 -2.35,-0.1 -3.53,-0.1 m 4.87,0.1 c 71.29,0 142.03,3.4 212,10.2 1.69,0.2 3.4,0.4 5.09,0.5 -71.64,-7.1 -144.06,-10.7 -217.09,-10.7 m 218.02,10.8 c 0.36,0.1 0.68,0.1 1.04,0.1 -0.36,0 -0.68,0 -1.04,-0.1 m -472.85,3.8 v 0 c -34.78,4 -69.67,8.7 -104.69,14.4 v 0 0 c 35.02,-5.6 69.91,-10.4 104.69,-14.4 v 0 m -107.4,14.9 c -0.4,0 -0.83,0.1 -1.23,0.2 0.42,-0.1 0.81,-0.2 1.23,-0.2 m -2.62,0.4 c -1.95,0.3 -3.92,0.7 -5.86,1 1.97,-0.3 3.89,-0.7 5.86,-1 m -5.98,1 c -129.6,21.8 -254.62,54.5 -374.4,96.9 119.78,-42.4 244.79,-75.1 374.4,-96.9"
         style="fill:#c1964f;fill-opacity:1;fill-rule:nonzero;stroke:none"
         id="path248" /><path
         d="m 8009.66,5645 c -1.18,0.4 -2.36,0.8 -3.53,1.2 1.16,-0.4 2.36,-0.8 3.53,-1.2 m -3.94,1.4 c -0.44,0.1 -0.87,0.3 -1.3,0.4 0.43,-0.1 0.86,-0.3 1.3,-0.4 m -2.74,0.9 c -0.34,0.2 -0.7,0.3 -1.04,0.4 0.34,-0.1 0.69,-0.2 1.04,-0.4 m -3.55,1.3 c -0.12,0.1 -0.18,0.1 -0.31,0.1 0.09,0 0.22,-0.1 0.31,-0.1 m -2.87,1.1 c -0.13,0 -0.18,0 -0.31,0.1 0.09,-0.1 0.22,-0.1 0.31,-0.1"
         style="fill:#c1964f;fill-opacity:1;fill-rule:nonzero;stroke:none"
         id="path250" /><path
         d="m 8748.36,5517 c -29.75,0 -59.58,0.7 -89.49,1.9 -52.57,2.3 -105.38,6.5 -158.44,12.7 v 0 c -34.78,4 -69.67,8.8 -104.69,14.4 v 0 c -0.91,0.2 -1.8,0.3 -2.71,0.5 -0.42,0 -0.81,0.1 -1.23,0.2 -0.47,0.1 -0.92,0.1 -1.39,0.2 -1.97,0.3 -3.89,0.7 -5.86,1 -0.03,0 -0.09,0 -0.12,0 -129.61,21.8 -254.62,54.5 -374.4,96.9 -0.12,0.1 -0.25,0.1 -0.37,0.2 -1.17,0.4 -2.37,0.8 -3.53,1.2 -0.13,0.1 -0.29,0.1 -0.41,0.2 -0.44,0.1 -0.87,0.3 -1.3,0.4 -0.49,0.2 -0.95,0.4 -1.44,0.5 -0.35,0.2 -0.7,0.3 -1.04,0.4 -0.84,0.3 -1.68,0.6 -2.51,0.9 -0.09,0 -0.22,0.1 -0.31,0.1 -0.83,0.3 -1.73,0.7 -2.56,1 -0.09,0 -0.22,0 -0.31,0.1 -378.05,136.8 -702.65,371.5 -948.91,669.3 170.79,94.8 360.76,118.1 552.79,118.1 60.17,0 120.55,-2.3 180.6,-5.4 269.64,-13.9 536.5,-47.2 806.11,-47.2 38.33,0 76.75,0.7 115.2,2.2 136.74,5.4 272.91,21.1 405.23,52.7 -68.2,-288.9 -179.62,-600 -353.35,-922.5 -0.01,0 -0.04,0 -0.09,0 -1.82,0 -3.65,0 -5.47,0 m 218.9,10.2 c 136.31,13.3 269.79,39.2 399.08,76.6 -127.06,-36.8 -258.16,-62.4 -392.02,-75.9 -0.36,0 -0.68,0 -1.04,-0.1 -0.31,0 -0.62,0 -0.93,-0.1 -1.69,-0.1 -3.4,-0.3 -5.09,-0.5"
         style="fill:#46aba3;fill-opacity:1;fill-rule:nonzero;stroke:none"
         id="path252" /><path
         d="m 8754.9,5517 c -0.34,0 -0.64,0 -0.98,0 v 0 c 173.73,322.5 285.15,633.6 353.35,922.5 93.51,22.3 185.1,52.5 273.64,92.6 26.93,12.2 53.64,25.2 80.08,39.1 203.99,-95.7 479.7,-184.2 521.52,-312.9 2.95,-9 4.83,-18.6 5.76,-28.7 -19.14,-15.1 -38.62,-29.7 -58.52,-43.5 -53.5,-38.4 -107.87,-74 -162.34,-105.8 -109.13,-63.1 -216.41,-113.4 -311.08,-150.9 -94.61,-37.6 -175.93,-63.6 -233.32,-80.2 -57.59,-16.8 -90.62,-23.9 -90.62,-23.9 -7.75,-1.7 -13.54,-8.6 -13.45,-16.8 0.1,-9.4 7.7,-17 17.06,-17 0.07,0 0.13,0 0.19,0 h 0.29 c 0,0 142.56,1.5 346.11,61.3 101.73,28.9 217.88,73.5 335.88,135.5 43.15,23.5 87.27,48.1 130.32,75.9 -39.96,-90.4 -103.44,-192 -160.65,-289.3 -132.14,-70.2 -271.72,-127.2 -416.73,-169.6 v 0 c -1.69,-0.5 -3.38,-1 -5.07,-1.5 -129.29,-37.4 -262.77,-63.3 -399.08,-76.6 -69.97,-6.8 -140.71,-10.2 -212,-10.2 -0.12,0 -0.24,0 -0.36,0"
         style="fill:#dab914;fill-opacity:1;fill-rule:nonzero;stroke:none"
         id="path254" /><path
         d="m 10817.7,6937.4 c 45.4,118.6 81.1,242.7 105.9,371.4 -100.6,90.9 -235.9,202.5 -402.6,315.9 -16.4,21.2 -36.3,35.3 -60.6,40.3 -57.3,37.4 -118,74.7 -181.9,111.3 50.1,270 59.5,539.6 22.8,812.9 -25.3,189.5 -70.1,376.1 -130.4,558 79.5,40.7 151.1,69.3 207.9,81.6 v 0 c 6.7,-7.4 13.4,-14.7 20.2,-22.3 355.1,-396.3 565.2,-917.5 565.4,-1473.1 0,-118.6 -9.5,-238.6 -29.2,-359.4 v 0 c -3.6,-21.8 -7.4,-43.6 -11.6,-65.2 -24.8,-128.7 -60.5,-252.8 -105.9,-371.4 v 0"
         style="fill:#46aba3;fill-opacity:1;fill-rule:nonzero;stroke:none"
         id="path256" /><path
         d="m 10021.3,6756.9 c -8.1,0 -16.5,0.2 -25.03,0.6 -1.6,0.1 -3.2,0.2 -4.81,0.3 -0.82,0 -1.66,0 -2.49,0.1 -41.67,2.5 -87.51,9.5 -135.37,18.8 -24.23,4.7 -48.98,10 -73.97,15.6 71.89,63.9 137.62,133.9 194.74,208.4 162.93,212.7 243.73,473.7 295.83,732.9 2.9,14.3 5.6,28.5 8.3,42.7 63.9,-36.6 124.6,-73.9 181.9,-111.3 -3.6,0.8 -7.4,1.3 -11.3,1.6 -0.1,0.1 -0.1,0.1 -0.2,0.1 -0.1,0 -0.2,0 -0.4,0 h -0.1 c -0.2,0 -0.3,0 -0.4,0 -0.1,0 -0.1,0 -0.2,0 -0.2,0.1 -0.4,0.1 -0.7,0.1 0,0 -0.1,0 -0.2,0 -0.1,0 -0.2,0 -0.3,0 -0.1,0 -0.2,0 -0.3,0 -0.1,0 -0.2,0.1 -0.3,0.1 -0.1,0 -0.2,0 -0.3,0 -0.1,0 -0.2,0 -0.3,0 -0.1,0 -0.3,0 -0.5,0 -0.1,0 -0.2,0 -0.2,0 -0.2,0 -0.3,0 -0.4,0 -0.1,0 -0.2,0 -0.3,0 -0.1,0.1 -0.2,0.1 -0.3,0.1 -0.1,0 -0.2,0 -0.3,0 -0.1,0 -0.3,0 -0.4,0 -0.1,0 -0.1,0 -0.2,0 -0.2,0 -0.4,0 -0.5,0 -0.1,0 -0.2,0 -0.3,0 -0.1,0 -0.2,0 -0.4,0 0,0 -0.1,0 -0.2,0 -0.1,0 -0.3,0 -0.4,0 -0.1,0 -0.1,0 -0.2,0 -0.2,0 -0.4,0 -0.6,0 v 0 c -228.9,0 -116.2,-713.8 -282.9,-870.6 v 0 c -29.7,-27.8 -75.5,-38.9 -131.1,-39.5 -1.6,0 -3.3,0 -4.9,0 m 728.1,20.9 c -9.8,5.2 -18.6,11.3 -26.4,18.6 -56,52.7 -80.5,168.4 -97,298.8 2.2,12.7 3.9,24.7 4.8,35.9 6.3,60.9 9.9,95.7 9.9,95.7 0.5,5.3 -2.8,10.5 -8.1,12 -1.1,0.3 -2.2,0.5 -3.2,0.5 -5,0 -9.5,-3.2 -10.9,-8.2 l -0.2,-0.6 c 0,0 -1.8,-6.3 -5.3,-18.1 -17.2,167.6 -32.7,335.9 -92,412.3 166.7,-113.4 302,-225 402.6,-315.9 -24.8,-128.7 -60.5,-252.8 -105.9,-371.4 -2.6,-6.8 -5.3,-13.7 -8,-20.5 -7.3,-18.9 -14.9,-37.5 -22.9,-56 -11.9,-28 -24.4,-55.7 -37.4,-83.1"
         style="fill:#dab914;fill-opacity:1;fill-rule:nonzero;stroke:none"
         id="path258" /><path
         d="m 10170.9,9147.2 c -45.5,137.4 -100,272.1 -161.6,403.2 76.3,-52.9 149.3,-110.3 218.1,-172.1 l 0.2,-0.1 0.6,-0.6 c 52.5,-47.2 102.9,-96.7 150.6,-148.8 -56.8,-12.3 -128.4,-40.9 -207.9,-81.6"
         style="fill:#dab914;fill-opacity:1;fill-rule:nonzero;stroke:none"
         id="path260" /><path
         d="m 9132.39,5825.3 c 0,0 33.03,7.1 90.62,23.9 57.39,16.6 138.71,42.6 233.32,80.2 94.67,37.5 201.95,87.8 311.08,150.9 54.47,31.8 108.84,67.4 162.34,105.8 54.18,37.6 105.15,80.9 155.05,125.2 49.3,44.9 96.7,92 139.3,141.9 42.5,50.1 83.6,100.1 118.1,152.6 17.9,25.7 34.7,51.6 50,77.7 15.7,25.8 31.6,51 44.3,76.9 27.9,50.6 50.1,100.8 71.6,146.8 17.8,47.5 37.5,90.2 50,129.8 12.3,39.6 26.5,73.4 33.6,102.5 16.9,57.9 26.6,91 26.6,91 l 0.2,0.6 c 1.7,6 8.1,9.5 14.1,7.7 5.3,-1.5 8.6,-6.7 8.1,-12 0,0 -3.6,-34.8 -9.9,-95.7 -2.5,-30.7 -10.9,-66.9 -18.6,-109.2 -7.3,-42.3 -21.4,-88.7 -35.4,-139.9 -17,-50.1 -34.7,-105.1 -60.7,-160.5 -11.3,-28.5 -25.9,-56.3 -40.5,-84.9 -13.8,-29.2 -30.9,-57.2 -48.5,-85.7 -16.8,-29 -36.1,-57 -56,-85.2 -18.9,-28.9 -41.3,-55.8 -63.5,-83.2 -44.7,-54.4 -94.5,-105.9 -146.5,-155.1 -53.8,-47 -108.9,-92.7 -166.94,-132.3 -56.96,-41.1 -117.23,-75 -175.69,-106.8 -118,-62 -234.15,-106.6 -335.88,-135.5 -203.55,-59.8 -346.11,-61.3 -346.11,-61.3 h -0.29 c -9.45,-0.1 -17.15,7.5 -17.25,17 -0.09,8.2 5.7,15.1 13.45,16.8"
         style="fill:#ffffff;fill-opacity:1;fill-rule:nonzero;stroke:none"
         id="path262" /><path
         d="m 6982.1,8619.4 c 0,0 1.08,5.1 3.07,14.8 2.24,9.8 5.27,24.2 10.53,41.8 10.03,35.5 26.36,85.7 52.27,143.3 12.43,29.1 27.14,60.1 44.78,91.8 16.27,32.5 36.93,64.7 57.78,98.5 22.95,32.3 44.53,67.4 71.33,99.5 26.7,32.1 52.81,65.7 82.73,96 l 44.62,45.4 c 15.88,14.1 31.67,28.1 47.36,42.1 30.3,28.9 64.6,52.3 97,75.6 31.43,24.6 65.44,43.2 97.3,61 15.88,9 31.37,17.6 46.28,26 15.79,6.9 30.99,13.4 45.6,19.8 29.28,12.4 55.84,24 80.2,32.2 24.75,7.5 46.48,13.1 64.21,17.9 35.62,9.3 55.94,13.7 55.94,13.7 6.13,1.4 12.22,-2.5 13.54,-8.7 1.07,-4.8 -1.07,-9.5 -4.97,-12 l -0.98,-0.6 c 0,0 -17.63,-11.3 -48.42,-29.5 -15.4,-8.8 -34.11,-19.5 -55.55,-31.7 -20.94,-13 -43.46,-29.6 -68.79,-45.5 -12.52,-8.3 -25.53,-16.9 -39.02,-25.7 -12.82,-9.8 -26.17,-19.9 -39.81,-30.3 -27.47,-20.4 -56.13,-41.9 -84,-66.8 -14.12,-12 -28.45,-24.2 -42.97,-36.6 -14.41,-12.5 -27.57,-26.9 -42.09,-39.9 -14.13,-13.3 -28.35,-26.8 -42.63,-40.4 l -40.14,-43.7 c -28.36,-27.7 -53.16,-58.8 -78.64,-88.4 -24.95,-30 -48.67,-60.4 -71.86,-89.7 -20.95,-30.9 -44.48,-58.7 -63.14,-87.6 -19.5,-28.4 -38.1,-55.2 -54.28,-80.7 -32.94,-50.7 -59.24,-94 -77.27,-124.6 -18.27,-30.7 -27.92,-48.4 -27.92,-48.4 l -0.15,-0.3 c -4.58,-8.4 -15,-11.5 -23.28,-6.9 -6.82,3.7 -10.14,11.4 -8.63,18.6"
         style="fill:#ffffff;fill-opacity:1;fill-rule:nonzero;stroke:none"
         id="path264" /><path
         d="m 10440.2,7667 c 228.9,0 116.1,-713.8 282.8,-870.6 79.4,-74.6 269.6,-30.7 457.2,13.1 206.4,48.3 409.6,96.6 458.3,-13.1 92.6,-209.1 -643,-331 -740.6,-538.1 -97.6,-206.9 467.9,-736 282.9,-870.6 -185.2,-134.5 -511.7,538.1 -740.6,538.1 -228.9,0 -555.56,-672.6 -740.61,-538.1 -185.13,134.6 353.61,653 282.92,870.6 -70.78,217.7 -811.39,320.5 -740.7,538.1 37.29,114.8 243.32,65 454.25,15.2 189.21,-44.6 382.34,-89.3 461.24,-15.2 166.7,156.8 54,870.6 282.9,870.6"
         style="fill:#ef334d;fill-opacity:1;fill-rule:nonzero;stroke:none"
         id="path266" /><path
         d="m 9902.77,5681.3 c -2.75,0 -5.05,0.7 -6.83,2.1 -14.62,11.5 10.42,67.4 55.93,124.8 39.9,50.2 82.23,85 101.93,85 2.7,0 5.1,-0.7 6.9,-2.1 14.5,-11.6 -10.7,-67.4 -56.2,-124.8 -39.77,-50.3 -82.16,-85 -101.73,-85"
         style="fill:#f36578;fill-opacity:1;fill-rule:nonzero;stroke:none"
         id="path268" /><path
         d="m 10152.2,6001.5 c -2.8,0 -5.1,0.7 -6.9,2.1 -14.6,11.6 10.5,67.5 56,124.8 39.9,50.3 82.3,85.1 101.9,85.1 2.8,0 5.1,-0.7 6.9,-2.1 14.5,-11.6 -10.6,-67.5 -56.1,-124.8 -39.9,-50.3 -82.2,-85.1 -101.8,-85.1"
         style="fill:#f36578;fill-opacity:1;fill-rule:nonzero;stroke:none"
         id="path270" /><path
         d="m 10913.2,5729.6 c -15.8,14.3 -33.1,32.7 -50,54 -30.5,38.5 -51.8,76.3 -58.2,100.5 26.3,-37.6 53.5,-74.4 79.5,-111.6 7.5,-10.8 17.3,-26 28.7,-42.9"
         style="fill:#f36578;fill-opacity:1;fill-rule:nonzero;stroke:none"
         id="path272" /><path
         d="m 10715.7,6018.7 c -19.6,0 -61.9,34.8 -101.8,85.1 -45.6,57.4 -70.7,113.2 -56.2,124.8 1.8,1.4 4.1,2.1 6.9,2.1 19.6,0 62,-34.8 101.9,-85.1 0.6,-0.7 1.2,-1.4 1.7,-2.2 14.8,-43.7 34.3,-85.1 51,-118.8 0.8,-1.5 1.5,-3 2.3,-4.5 -1.6,-0.9 -3.6,-1.4 -5.8,-1.4"
         style="fill:#f36578;fill-opacity:1;fill-rule:nonzero;stroke:none"
         id="path274" /><path
         d="m 9788.62,6624.2 c -24.29,0 -55.83,3.9 -89.61,11.8 -71.33,16.7 -125.65,44.9 -121.41,63 2.25,9.5 20.2,14.3 47.07,14.3 24.28,0 55.83,-3.9 89.69,-11.8 71.22,-16.7 125.55,-44.9 121.46,-63 -2.26,-9.5 -20.27,-14.3 -47.2,-14.3"
         style="fill:#f36578;fill-opacity:1;fill-rule:nonzero;stroke:none"
         id="path276" /><path
         d="m 10189.5,6473.9 c -24.2,0 -55.8,3.9 -89.6,11.8 -71.3,16.8 -125.67,45 -121.43,63 2.26,9.6 20.28,14.4 47.23,14.4 24.3,0 55.8,-3.9 89.5,-11.8 71.3,-16.8 125.6,-44.9 121.4,-63 -2.2,-9.6 -20.2,-14.4 -47.1,-14.4"
         style="fill:#f36578;fill-opacity:1;fill-rule:nonzero;stroke:none"
         id="path278" /><path
         d="m 11165.8,6624.2 c -27,0 -44.9,4.8 -47.2,14.3 -0.1,0.7 -0.2,1.4 -0.2,2.2 15.3,4.2 30.6,8.2 46,11.8 35.1,8.1 73.7,19 110.5,19 3.4,0 6.8,-0.1 10.2,-0.3 30.2,-1.8 26.9,-12.1 13.7,-23 -13.4,-4.4 -28,-8.6 -43.5,-12.2 -33.7,-7.9 -65.3,-11.8 -89.5,-11.8"
         style="fill:#f36578;fill-opacity:1;fill-rule:nonzero;stroke:none"
         id="path280" /><path
         d="m 10764.8,6473.9 c -26.9,0 -44.8,4.8 -47,14.4 -4.3,18.1 50,46.2 121.3,63 33.8,7.9 65.3,11.8 89.6,11.8 26.9,0 45,-4.8 47.2,-14.4 0.8,-3.2 -0.4,-6.8 -3.1,-10.6 -28.4,-7.2 -56.7,-14.3 -84.9,-21.6 -34.9,-9.1 -68.4,-23 -99.3,-41.5 -8.5,-0.7 -16.5,-1.1 -23.8,-1.1"
         style="fill:#f36578;fill-opacity:1;fill-rule:nonzero;stroke:none"
         id="path282" /><path
         d="m 10439.6,6429.5 c 0,0 0,0 -0.1,0 -18.5,0.4 -32.6,60 -31.3,133.2 1.2,73 17.2,132 35.8,132 h 0.1 c 18.6,-0.4 32.7,-60 31.3,-133.2 -1.2,-73 -17.3,-132 -35.8,-132"
         style="fill:#f36578;fill-opacity:1;fill-rule:nonzero;stroke:none"
         id="path284" /><path
         d="m 10439.7,6876.3 c -0.1,0 -0.1,0 -0.2,0 -18.5,0.3 -32.6,60 -31.3,133.2 0.8,46.8 7.7,87.8 17.4,111.2 7.2,-51.8 15.7,-103.3 21.9,-153.4 2.9,-24.4 5.7,-48.9 9.3,-73.2 -5.1,-11.3 -11,-17.8 -17.1,-17.8"
         style="fill:#f36578;fill-opacity:1;fill-rule:nonzero;stroke:none"
         id="path286" /><path
         d="m 10412.7,7344.7 c -3.3,21.3 -5,46.9 -4.5,74.5 1.2,73 17.2,132 35.8,132 h 0.1 c 9.4,-0.2 17.6,-15.4 23.2,-39.8 -4.1,-1.5 -8.7,-4.5 -13.9,-9.2 -28.1,-25.2 -32.2,-87.3 -36.9,-121.4 -1.7,-11.9 -2.9,-24 -3.8,-36.1"
         style="fill:#f36578;fill-opacity:1;fill-rule:nonzero;stroke:none"
         id="path288" /><path
         d="m 10768.5,5672.8 c -114.8,130.2 -230.5,253 -328.3,253 v 0 0 c 97.8,0 213.5,-122.8 328.3,-253 v 0"
         style="fill:#de7246;fill-opacity:1;fill-rule:nonzero;stroke:none"
         id="path290" /><path
         d="m 11127,5370 c -100.7,0 -229,156 -358.5,302.8 v 0 C 10898,5526 11026.3,5369.9 11127,5370 v 0 m -1373.61,0 c -0.01,0 -0.02,0 -0.03,0 0.01,0 0.02,0 0.03,0 v 0 m 1373.61,0 c 19,0 37,5.5 53.8,17.7 0.2,0.2 0.3,0.3 0.5,0.4 -0.2,-0.1 -0.3,-0.2 -0.5,-0.4 -16.8,-12.2 -34.8,-17.7 -53.8,-17.7 m 54.5,18.2 c 0.1,0.1 0.2,0.2 0.2,0.2 0,0 -0.1,-0.1 -0.2,-0.2 m 0.5,0.4 c 0.1,0.1 0.1,0.1 0.2,0.2 -0.1,-0.1 -0.1,-0.1 -0.2,-0.2 m 1.2,1 h 0.1 -0.1 m 0.5,0.3 v 0 0"
         style="fill:#da6d41;fill-opacity:1;fill-rule:nonzero;stroke:none"
         id="path292" /><path
         d="m 9779.63,6792.3 c -27.69,6.2 -55.68,12.7 -83.57,19.3 27.9,-6.6 55.87,-13.1 83.57,-19.3 v 0 m -537.82,4.1 c 16.78,51.6 67.66,70 137.81,70 -70.13,0 -121.04,-18.4 -137.81,-70 m 454.25,15.2 c -1.76,0.4 -3.54,0.9 -5.3,1.3 1.76,-0.4 3.54,-0.9 5.3,-1.3 m -315.34,54.8 c -0.34,0 -0.68,0 -1.01,0 v 0 c 0.33,0 0.67,0 1.01,0"
         style="fill:#f2851c;fill-opacity:1;fill-rule:nonzero;stroke:none"
         id="path294" /><path
         d="m 10021.3,6756.9 c -8.1,0 -16.5,0.2 -25.03,0.6 8.53,-0.4 16.93,-0.6 25.03,-0.6 v 0 m 4.9,0 c 55.6,0.6 101.4,11.7 131.1,39.5 -29.7,-27.8 -75.4,-38.9 -131.1,-39.5 m -34.74,0.9 c -0.82,0 -1.66,0 -2.49,0.1 0.83,-0.1 1.67,-0.1 2.49,-0.1 m -137.86,18.9 c -24.24,4.7 -48.97,10 -73.97,15.6 v 0 c 24.99,-5.6 49.74,-10.9 73.97,-15.6 m 595.5,889.9 c -0.1,0.1 -0.1,0.1 -0.2,0.1 0.1,0 0.1,0 0.2,-0.1 m -0.6,0.1 h -0.1 0.1 m -0.5,0 c -0.1,0 -0.1,0 -0.2,0 0.1,0 0.1,0 0.2,0 m -0.9,0.1 c 0,0 -0.1,0 -0.2,0 0.1,0 0.2,0 0.2,0 m -0.5,0 c -0.1,0 -0.2,0 -0.3,0 0.1,0 0.2,0 0.3,0 m -0.6,0.1 c -0.1,0 -0.2,0 -0.3,0 0.1,0 0.2,0 0.3,0 m -0.6,0 c -0.2,0 -0.3,0 -0.5,0 0.2,0 0.4,0 0.5,0 m -0.7,0 c -0.2,0 -0.3,0 -0.4,0 0.1,0 0.2,0 0.4,0 m -0.7,0 c -0.1,0.1 -0.2,0.1 -0.3,0.1 0.1,0 0.2,0 0.3,-0.1 m -0.6,0.1 c -0.1,0 -0.3,0 -0.4,0 0.1,0 0.3,0 0.4,0 m -0.6,0 c -0.2,0 -0.4,0 -0.5,0 0.1,0 0.3,0 0.5,0 m -0.8,0 c -0.1,0 -0.2,0 -0.4,0 0.2,0 0.3,0 0.4,0 m -0.6,0 c -0.1,0 -0.3,0 -0.4,0 0.1,0 0.3,0 0.4,0 m -0.6,0 c -0.2,0 -0.4,0 -0.6,0 0.2,0 0.4,0 0.6,0"
         style="fill:#d57418;fill-opacity:1;fill-rule:nonzero;stroke:none"
         id="path296" /><path
         d="m 11127,5370 c -100.7,-0.1 -229,156 -358.5,302.8 -114.8,130.2 -230.5,253 -328.3,253 v 0 c -208.1,0 -496.98,-555.9 -686.81,-555.8 -0.01,0 -0.02,0 -0.03,0 -18.96,0 -36.96,5.5 -53.77,17.7 v 0 c -27.48,20 -39.01,48.4 -38.95,83.1 0.31,184.2 328.09,544.1 328.31,743.4 0.02,15.8 -2.02,30.5 -6.44,44.1 -67.53,207.7 -744.82,310.8 -745.45,508.9 -0.03,9.5 1.51,19.2 4.75,29.2 v 0 c 16.77,51.6 67.68,70 137.81,70 0.03,0 0.06,0 0.09,0 0.33,0 0.67,0 1.01,0 84.37,-0.2 196.3,-26.7 310.04,-53.5 1.76,-0.4 3.54,-0.9 5.3,-1.3 v 0 0 c 27.89,-6.6 55.88,-13.1 83.57,-19.3 25,-5.6 49.73,-10.9 73.97,-15.6 47.87,-9.3 93.69,-16.3 135.37,-18.8 0.83,-0.1 1.67,-0.1 2.49,-0.1 1.61,-0.1 3.21,-0.2 4.81,-0.3 8.53,-0.4 16.93,-0.6 25.03,-0.6 v 0 0 c 1.6,0 3.3,0 4.9,0 55.7,0.6 101.4,11.7 131.1,39.5 v 0 c 166.7,156.8 54,870.6 282.9,870.6 v 0 c 0.2,0 0.4,0 0.6,0 0.1,0 0.1,0 0.2,0 0.1,0 0.3,0 0.4,0 0.1,0 0.2,0 0.2,0 0.2,0 0.3,0 0.4,0 0.1,0 0.2,0 0.3,0 0.1,0 0.3,0 0.5,0 0.1,0 0.1,0 0.2,0 0.1,0 0.3,0 0.4,0 0.1,0 0.2,0 0.3,0 0.1,0 0.2,0 0.3,-0.1 0.1,0 0.2,0 0.3,0 0.1,0 0.2,0 0.4,0 0,0 0.1,0 0.2,0 0.2,0 0.3,0 0.5,0 0.1,0 0.2,0 0.3,0 0.1,0 0.2,0 0.3,0 0.1,0 0.2,-0.1 0.3,-0.1 0.1,0 0.2,0 0.3,0 0.1,0 0.2,0 0.3,0 0.1,0 0.2,0 0.2,0 0.3,0 0.5,0 0.7,-0.1 0.1,0 0.1,0 0.2,0 0.1,0 0.2,0 0.4,0 h 0.1 c 0.2,0 0.3,0 0.4,0 0.1,0 0.1,0 0.2,-0.1 40.3,-3.4 69.3,-30.2 91.1,-72.6 -13,6.8 -26.5,11 -40.4,11 -13.9,0 -28.2,-4.3 -42.4,-14.6 -57.5,-41.6 -72.5,-139.9 -87.5,-203 -23.5,-98.1 -42.6,-199.9 -49.4,-300.7 -6.6,-100.7 -0.6,-211.3 -55.6,-300.6 -34.8,-56.8 -98,-83.5 -161.2,-93.9 -26.7,-4.4 -53.8,-6.3 -81,-6.3 -110.5,0 -223.46,31.7 -328.37,56.6 -28.16,6.7 -56.22,12.8 -84.63,18.1 -43.84,8.3 -85.69,23.2 -130.61,23.2 -0.04,0 -0.07,0 -0.11,0 -46.46,0 -100.81,-31 -62.5,-78.3 21.58,-26.7 62.17,-42.2 92.81,-55.1 47.41,-19.7 96.27,-34.8 145.24,-50.2 84.87,-26.6 169.98,-59.4 248.81,-100.9 81.42,-42.8 141.76,-106.4 153.96,-200.4 13,-98.8 -38,-190.7 -80.19,-275.9 -44.34,-89.8 -95.25,-179.3 -132.14,-272.6 -22.36,-56.5 -76.59,-145.3 -35.9,-204.9 6.56,-9.6 15.18,-13.5 24.92,-13.5 36.93,0 89.8,56.2 105.99,70.8 72.72,65.5 140.72,136.2 204.02,210.7 52.1,61.4 106.4,122.5 174.8,166.3 38.4,24.5 77.6,36.2 116.7,36.2 42.6,0 85.1,-14 126.3,-40.7 71.6,-46.4 125.3,-118.2 179,-183.2 61.1,-74.2 132.5,-139.2 197.1,-210.1 34,-37.1 89,-99 146.6,-99 5.9,0 11.9,0.6 17.9,2 54.9,13.1 55.7,70.9 50.4,117.4 -2.8,25.3 -6.7,50.2 -11.3,75 69.5,-125.9 109.4,-234.8 42.2,-287.5 v 0 c -0.2,-0.1 -0.3,-0.2 -0.4,-0.3 h -0.1 c -0.3,-0.3 -0.7,-0.6 -1,-0.8 -0.1,-0.1 -0.1,-0.1 -0.2,-0.2 -0.1,0 -0.2,-0.1 -0.3,-0.2 0,0 -0.1,-0.1 -0.2,-0.2 -0.1,0 -0.2,-0.1 -0.2,-0.1 -0.2,-0.1 -0.3,-0.2 -0.5,-0.4 -16.8,-12.2 -34.8,-17.7 -53.8,-17.7 v 0"
         style="fill:#ee273e;fill-opacity:1;fill-rule:nonzero;stroke:none"
         id="path298" /><path
         d="m 11035.6,5611.3 c -41.2,4.1 -88.7,68.4 -122.4,118.3 21.7,-19.5 40.6,-31.1 51.9,-31.1 2.8,0 5.1,0.7 6.9,2.1 14.5,11.6 -10.5,67.4 -56.1,124.8 -39.9,50.2 -82.1,85 -101.8,85 -2.8,0 -5.1,-0.7 -6.9,-2.1 -4.8,-3.8 -5.2,-12.4 -2.2,-24.2 -30.5,43.8 -59.6,88.6 -83.5,136 0.3,0.2 0.7,0.5 1,0.7 14.4,11.4 -9.9,66 -54.3,122.6 -24.3,72.1 -35.8,150.5 -0.4,210.5 30,51.1 72,91.8 120.8,121.1 19.7,1.6 42.2,5.2 65.9,10.7 58.4,13.7 105.5,35.2 118.3,52.4 94.2,23.9 188.7,48.6 279.2,83.7 9.3,3.7 33.3,15.3 46.8,26.4 48.7,16.2 81.3,36.6 78,50.8 -2.2,9.5 -20.2,14.3 -47.1,14.3 -24.3,0 -55.8,-3.9 -89.7,-11.8 -68.4,-16 -121.2,-42.7 -121.6,-60.8 -91.5,-25.4 -180.7,-60.2 -274.9,-73.9 -16.7,-2.4 -33.3,-3.6 -49.6,-3.6 -143.6,0 -270.6,91.4 -315.4,231.6 -10.3,32.5 -16.8,65.8 -21.7,99.3 10.3,22.8 17.8,65.3 18.6,114.2 1.4,73.2 -12.7,132.8 -31.3,133.1 h -0.1 c -6.7,0 -13,-7.6 -18.4,-20.7 -10.5,74.8 -18.4,150.4 -12.9,224 5.4,-35.2 15.2,-58.4 26.8,-58.7 0.1,0 0.1,0 0.2,0 18.5,0 34.5,59 35.7,132 0.7,36.4 -2.4,69.4 -8.1,93.4 2.6,1 4.9,1.5 7.1,1.5 17.4,0 22.5,-29.7 23.4,-49.2 3.4,-77.5 3.5,-154.8 5.5,-231.9 3.9,-154 9.3,-332.6 82,-472.4 39.8,-76.4 115.4,-100.3 196.1,-108.5 17,-1.8 33.9,-2.6 50.7,-2.6 72,0 141.9,15.2 211.7,37.9 91.8,29.7 185.6,45.9 278.9,66.9 31.6,7.2 83.3,22.8 129,22.8 37.9,0 71.7,-10.8 86.4,-46 34.3,-82 -208,-138.3 -261,-154.1 -176.4,-52.4 -414.5,-82.5 -463.9,-293.6 -23.5,-100.9 10,-201.8 61,-289.3 59.2,-101.4 100,-208.4 145.5,-316.7 9.1,-21.6 16.5,-41.5 15.9,-64.9"
         style="fill:#f1475c;fill-opacity:1;fill-rule:nonzero;stroke:none"
         id="path300" /><path
         d="m 10965.1,5698.5 c -11.3,0 -30.2,11.6 -51.9,31.1 -11.4,16.9 -21.2,32.1 -28.7,42.9 -26,37.2 -53.2,74 -79.5,111.6 -3,11.8 -2.6,20.4 2.2,24.2 1.8,1.4 4.1,2.1 6.9,2.1 19.7,0 61.9,-34.8 101.8,-85 45.6,-57.4 70.6,-113.2 56.1,-124.8 -1.8,-1.4 -4.1,-2.1 -6.9,-2.1"
         style="fill:#f57b89;fill-opacity:1;fill-rule:nonzero;stroke:none"
         id="path302" /><path
         d="m 10721.5,6020.1 c -0.8,1.5 -1.5,3 -2.3,4.5 -16.7,33.7 -36.2,75.1 -51,118.8 44.4,-56.6 68.7,-111.2 54.3,-122.6 -0.3,-0.2 -0.7,-0.5 -1,-0.7"
         style="fill:#f57b89;fill-opacity:1;fill-rule:nonzero;stroke:none"
         id="path304" /><path
         d="m 11118.4,6640.7 c 0.4,18.1 53.2,44.8 121.6,60.8 33.9,7.9 65.4,11.8 89.7,11.8 26.9,0 44.9,-4.8 47.1,-14.3 3.3,-14.2 -29.3,-34.6 -78,-50.8 13.2,10.9 16.5,21.2 -13.7,23 -3.4,0.2 -6.8,0.3 -10.2,0.3 -36.8,0 -75.4,-10.9 -110.5,-19 -15.4,-3.6 -30.7,-7.6 -46,-11.8"
         style="fill:#f57b89;fill-opacity:1;fill-rule:nonzero;stroke:none"
         id="path306" /><path
         d="m 10788.6,6475 c 30.9,18.5 64.4,32.4 99.3,41.5 28.2,7.3 56.5,14.4 84.9,21.6 -12.8,-17.2 -59.9,-38.7 -118.3,-52.4 -23.7,-5.5 -46.2,-9.1 -65.9,-10.7"
         style="fill:#f57b89;fill-opacity:1;fill-rule:nonzero;stroke:none"
         id="path308" /><path
         d="m 10456.8,6894.1 c -3.6,24.3 -6.4,48.8 -9.3,73.2 -6.2,50.1 -14.7,101.6 -21.9,153.4 5.4,13.1 11.7,20.7 18.4,20.7 h 0.1 c 18.6,-0.3 32.7,-59.9 31.3,-133.1 -0.8,-48.9 -8.3,-91.4 -18.6,-114.2"
         style="fill:#f57b89;fill-opacity:1;fill-rule:nonzero;stroke:none"
         id="path310" /><path
         d="m 10439.7,7286 c -0.1,0 -0.1,0 -0.2,0 -11.6,0.3 -21.4,23.5 -26.8,58.7 0.9,12.1 2.1,24.2 3.8,36.1 4.7,34.1 8.8,96.2 36.9,121.4 5.2,4.7 9.8,7.7 13.9,9.2 5.7,-24 8.8,-57 8.1,-93.4 -1.2,-73 -17.2,-132 -35.7,-132"
         style="fill:#f57b89;fill-opacity:1;fill-rule:nonzero;stroke:none"
         id="path312" /><path
         d="m 9355.14,6821.4 c 0,0 -1.31,-0.9 -3.7,-2.7 -1.95,-1.7 -6.82,-4.1 -9.46,-7.6 -2.63,-3.4 -5.8,-6.7 -8.28,-12.7 -2.53,-5.4 -4.43,-12.2 -4.29,-19 -0.68,-6.9 1.71,-14 4.68,-20.1 3.61,-6.3 8.19,-10.1 18.42,-18.7 8.67,-8.3 18.02,-15.2 26.89,-20.7 8.48,-6.4 18.12,-12.5 28.85,-18.1 19.97,-12.4 41.99,-22.6 62.4,-33.2 20.42,-10.5 40.05,-20.3 56.28,-29.9 32.84,-18.7 52.47,-35.4 52.47,-35.4 1.8,-1.5 2,-4.2 0.44,-5.9 -1.08,-1.3 -2.93,-1.7 -4.43,-1.3 0,-0.1 -6.19,1.5 -16.52,4.8 -10.04,3.8 -25.09,7.7 -42.73,13.4 -35.22,11.3 -82.97,26.3 -128.47,51.7 -11.21,6.1 -22.46,13.4 -33.33,21.9 -11.74,7.8 -20.56,16.6 -28.26,24.9 -4.33,4.6 -8.67,9.1 -12.86,13.4 -3.9,6.5 -8.68,12.4 -10.77,19.2 -4.82,13.5 -5.5,27.2 -2.24,38.5 2.19,11.6 8.04,21 14.03,27.7 5.51,7 12.82,11.8 18.61,15.3 5.6,3.6 9.55,3.2 12.47,4.5 2.88,0.8 4.34,1.2 4.34,1.2 3.41,0.9 6.87,-1.1 7.8,-4.4 0.68,-2.6 -0.3,-5.3 -2.34,-6.8"
         style="fill:#ffffff;fill-opacity:1;fill-rule:nonzero;stroke:none"
         id="path314" /><path
         d="m 10884.3,5997.7 c 0,0 -24.5,23.6 -51.3,66.5 -12.9,21.8 -27.1,48.2 -36.4,79.3 -5.5,15.3 -8.7,32 -11.5,49.1 -1.5,17.2 -3.4,35.1 -1.2,53.1 l 4,26.8 c 2.4,8.7 5.8,17.2 8.6,25.6 4.4,17.7 17.1,31.1 25.4,45.7 10.3,13.2 23.1,23.6 33.8,34.2 12.1,8.9 24.5,15.8 35.5,22.6 10.6,7.6 22.4,10 32,13.9 9.6,3.5 18,6.5 25,9 13.9,4.8 22.1,5.7 22.1,5.7 l 0.7,0.1 c 2.2,0.2 4.3,-1.4 4.5,-3.6 0.3,-1.8 -0.7,-3.5 -2.3,-4.2 0,0 -7.6,-3.7 -19.4,-11.3 -6,-3.8 -13.2,-8.4 -21.5,-13.7 -8,-5.6 -18.2,-10 -26.6,-18.3 -8.8,-7.5 -18.4,-15.7 -28.5,-24.3 -7.9,-10.4 -17.5,-20.2 -25.3,-31.5 -5.8,-12.6 -15.1,-23.8 -18,-38 -2,-6.9 -4.6,-13.6 -6.4,-20.7 l -2.5,-21.8 c -2.1,-14.5 -0.5,-29.7 0.4,-44.4 2.6,-14.7 3.7,-29.5 8.1,-43.4 6.5,-28.4 16.9,-54.2 25.7,-76.3 18.8,-44.3 35,-72.6 35,-72.6 1.7,-3 0.7,-6.8 -2.3,-8.5 -2.5,-1.4 -5.6,-0.8 -7.6,1"
         style="fill:#ffffff;fill-opacity:1;fill-rule:nonzero;stroke:none"
         id="path316" /></g></g></svg>
